<?xml version="1.0" encoding="UTF-8"?><svg id="Layer_2" xmlns="http://www.w3.org/2000/svg" viewBox="0 0 15 20"><defs><style>.cls-1{fill:#450dc0;stroke-width:0px;}</style></defs><g id="Layer_1-2"><path class="cls-1" d="M15,6.66v10.84c0,1.38-1.12,2.5-2.5,2.5H2.5C1.12,20,0,18.88,0,17.5V2.5c0-1.38,1.12-2.5,2.5-2.5h5.84c.66,0,1.3.26,1.77.73l4.16,4.16c.47.47.73,1.1.73,1.77ZM13.75,7.5h-4.38c-1.04,0-1.88-.84-1.88-1.88V1.25H2.5c-.69,0-1.25.56-1.25,1.25v15c0,.69.56,1.25,1.25,1.25h10c.69,0,1.25-.56,1.25-1.25V7.5ZM8.75,5.62c0,.34.28.62.62.62h4.29c-.06-.18-.15-.34-.28-.47L9.22,1.62c-.13-.13-.3-.22-.47-.29v4.29Z"/></g></svg>