<svg width="144" height="143" viewBox="0 0 144 143" fill="none" xmlns="http://www.w3.org/2000/svg">
<path d="M71.8885 25.2222C78.025 25.2222 82.9996 20.2476 82.9996 14.1111C82.9996 7.97461 78.025 3 71.8885 3C65.752 3 60.7773 7.97461 60.7773 14.1111C60.7773 20.2476 65.752 25.2222 71.8885 25.2222Z" stroke="#D5007F" stroke-width="5" stroke-miterlimit="10"/>
<path d="M45.2227 65.2222V49.6666C45.2227 41.0666 52.1782 34.1111 60.7782 34.1111H83.0004C91.6004 34.1111 98.556 41.0666 98.556 49.6666V65.2222H45.2227Z" stroke="#D5007F" stroke-width="5" stroke-miterlimit="10"/>
<path d="M58.5557 65.2222V54.1111" stroke="#D5007F" stroke-width="5" stroke-miterlimit="10"/>
<path d="M85.2227 65.2222V54.1111" stroke="#D5007F" stroke-width="5" stroke-miterlimit="10"/>
<path d="M89.667 11.8889H140.778V91.8889H109.667" stroke="#D5007F" stroke-width="5" stroke-miterlimit="10"/>
<path d="M34.1111 91.8889H3V11.8889H54.1111" stroke="#D5007F" stroke-width="5" stroke-miterlimit="10"/>
<path d="M111.889 65.2222H31.8887V78.5556H111.889V65.2222Z" stroke="#D5007F" stroke-width="5" stroke-miterlimit="10"/>
<path d="M45.2227 143V78.5555H98.556V143" stroke="#D5007F" stroke-width="5" stroke-miterlimit="10"/>
</svg>
