<svg width="146" height="146" viewBox="0 0 146 146" fill="none" xmlns="http://www.w3.org/2000/svg">
<path d="M77.2931 63.6667H96.3331V79.9533L114.066 63.6667H143V3H54.3564V45" stroke="#D5007F" stroke-width="5" stroke-linecap="round" stroke-linejoin="round"/>
<path d="M98.6663 33.3334C99.955 33.3334 101 32.2887 101 31C101 29.7114 99.955 28.6667 98.6663 28.6667C97.3777 28.6667 96.333 29.7114 96.333 31C96.333 32.2887 97.3777 33.3334 98.6663 33.3334Z" stroke="#D5007F" stroke-width="5" stroke-linecap="round" stroke-linejoin="round"/>
<path d="M80.0003 33.3334C81.289 33.3334 82.3337 32.2887 82.3337 31C82.3337 29.7114 81.289 28.6667 80.0003 28.6667C78.7117 28.6667 77.667 29.7114 77.667 31C77.667 32.2887 78.7117 33.3334 80.0003 33.3334Z" stroke="#D5007F" stroke-width="5" stroke-linecap="round" stroke-linejoin="round"/>
<path d="M117.333 33.3334C118.622 33.3334 119.667 32.2887 119.667 31C119.667 29.7114 118.622 28.6667 117.333 28.6667C116.045 28.6667 115 29.7114 115 31C115 32.2887 116.045 33.3334 117.333 33.3334Z" stroke="#D5007F" stroke-width="5" stroke-linecap="round" stroke-linejoin="round"/>
<path d="M85.53 125.033C66.4433 121.767 68.3333 116.867 68.3333 113.6V107.673C74.0033 102.307 77.6667 93.79 77.6667 84.2V68.52C77.6667 51.5333 65.37 45 54.3333 45C43.2967 45 31 51.5333 31 68.52V84.2C31 93.9067 34.7333 102.47 40.4967 107.813V113.6C40.4967 116.867 42.2233 121.767 23.1367 125.033C6.08 127.95 3 138.333 3 143H105.667C105.667 138.333 102.587 127.95 85.53 125.033Z" stroke="#D5007F" stroke-width="5" stroke-linecap="round" stroke-linejoin="round"/>
</svg>
