<svg width="146" height="146" viewBox="0 0 146 146" fill="none" xmlns="http://www.w3.org/2000/svg">
<path d="M27.8392 25.5806C34.0746 25.5806 39.1295 20.5258 39.1295 14.2903C39.1295 8.05485 34.0746 3 27.8392 3C21.6037 3 16.5488 8.05485 16.5488 14.2903C16.5488 20.5258 21.6037 25.5806 27.8392 25.5806Z" stroke="#D5007F" stroke-width="5" stroke-linejoin="round"/>
<path d="M16.5484 63.9678V84.2904H3V50.4194C3 41.6807 10.0677 34.6129 18.8065 34.6129H79.7742V48.1613H43.6452V84.2904H143V12.0323H45.9032" stroke="#D5007F" stroke-width="5" stroke-miterlimit="10"/>
<path d="M127.194 122.677L143 131.71V136.226C143 139.974 140.742 143 138.484 143H7.51613C5.25806 143 3 139.974 3 136.226V131.71L18.8065 122.677" stroke="#D5007F" stroke-width="5" stroke-miterlimit="10"/>
<path d="M79.7744 122.677L97.8389 131.71L113.645 122.677" stroke="#D5007F" stroke-width="5" stroke-miterlimit="10"/>
<path d="M32.3545 122.677L48.1609 131.71L66.2255 122.677" stroke="#D5007F" stroke-width="5" stroke-miterlimit="10"/>
<path d="M36.8707 110.258C36.8707 118.161 32.4449 124.935 25.5804 124.935C18.7158 124.935 14.29 118.161 14.29 110.258C14.29 102.355 16.5481 97.8387 25.5804 97.8387C34.6126 97.8387 36.8707 102.355 36.8707 110.258Z" stroke="#D5007F" stroke-width="5" stroke-miterlimit="10"/>
<path d="M84.2906 110.258C84.2906 118.161 79.8648 124.935 73.0003 124.935C66.1358 124.935 61.71 118.161 61.71 110.258C61.71 102.355 63.968 97.8387 73.0003 97.8387C82.0325 97.8387 84.2906 102.355 84.2906 110.258Z" stroke="#D5007F" stroke-width="5" stroke-miterlimit="10"/>
<path d="M131.71 110.258C131.71 118.161 127.284 124.935 120.419 124.935C113.555 124.935 109.129 118.161 109.129 110.258C109.129 102.355 111.387 97.8387 120.419 97.8387C129.451 97.8387 131.71 102.355 131.71 110.258Z" stroke="#D5007F" stroke-width="5" stroke-miterlimit="10"/>
<path d="M48.1611 131.71V138.484" stroke="#D5007F" stroke-width="5" stroke-miterlimit="10"/>
<path d="M97.8389 131.71V138.484" stroke="#D5007F" stroke-width="5" stroke-miterlimit="10"/>
</svg>
