<svg width="110" height="84" viewBox="0 0 110 84" fill="none" xmlns="http://www.w3.org/2000/svg">
<path d="M18.0056 54.5744C17.4261 54.5805 16.867 54.4565 16.3261 54.1983C15.7853 53.9401 15.3339 53.5802 14.9699 53.1207C14.4393 52.466 14.1749 51.6547 14.1749 50.693C14.1749 50.1358 14.2807 49.6052 14.488 49.103C14.6975 48.615 14.9801 48.1961 15.3359 47.8464C15.6978 47.5048 16.1146 47.2364 16.5803 47.0412C17.0621 46.8399 17.5542 46.7383 18.0564 46.7383C18.8595 46.7383 19.559 46.9294 20.1588 47.3137C20.4373 47.5089 20.6671 47.7081 20.8501 47.9094C21.212 48.3202 21.456 48.7634 21.5821 49.2392L20.3987 49.6479C20.3357 49.3693 20.2096 49.0928 20.0226 48.8203C19.8904 48.6312 19.744 48.4787 19.5834 48.3608C19.193 48.0335 18.6806 47.8688 18.0442 47.8688C17.361 47.8688 16.7572 48.1209 16.2346 48.6231C15.6978 49.1457 15.4294 49.8227 15.4294 50.6543C15.4294 51.4859 15.6938 52.1793 16.2244 52.6957C16.7409 53.1979 17.3448 53.45 18.034 53.45C18.6135 53.45 19.1056 53.2935 19.5102 52.9783C19.6993 52.8258 19.8518 52.6713 19.9697 52.5188C20.1852 52.2321 20.3357 51.9393 20.419 51.6404L21.6024 52.0491C21.4275 52.6774 21.0798 53.2142 20.5553 53.6615C20.1019 54.0458 19.5956 54.3101 19.0385 54.4565C18.703 54.5399 18.3573 54.5826 18.0015 54.5826L18.0056 54.5744Z" fill="white"/>
<path d="M22.5641 48.1292C22.4116 47.9767 22.3344 47.7977 22.3344 47.5964C22.3344 47.3952 22.4116 47.2061 22.5641 47.0515C22.7105 46.899 22.8894 46.8218 23.0989 46.8218C23.3083 46.8218 23.4974 46.899 23.6438 47.0515C23.7902 47.1979 23.8634 47.3789 23.8634 47.5964C23.8634 47.814 23.7902 47.9828 23.6438 48.1292C23.4913 48.2837 23.3083 48.3589 23.0989 48.3589C22.8894 48.3589 22.7186 48.2817 22.5641 48.1292ZM22.5214 54.481V49.28H23.6824V54.481H22.5214Z" fill="white"/>
<path d="M27.9136 49.2798V50.327H26.596V52.8075C26.596 53.0373 26.6591 53.2081 26.7851 53.3158C26.9112 53.4236 27.1125 53.4785 27.391 53.4785C27.5313 53.4785 27.6879 53.4643 27.8627 53.4358V54.4301C27.6045 54.4992 27.328 54.5338 27.0352 54.5338C26.4984 54.5338 26.0959 54.4077 25.8315 54.1576C25.5672 53.9075 25.433 53.4765 25.433 52.8706V50.327H24.4286V49.2798H25.433V47.6675H26.594V49.2798H27.9115H27.9136Z" fill="white"/>
<path d="M28.8428 48.1292C28.6903 47.9767 28.613 47.7977 28.613 47.5964C28.613 47.3952 28.6903 47.2061 28.8428 47.0515C28.9892 46.899 29.1681 46.8218 29.3775 46.8218C29.587 46.8218 29.7761 46.899 29.9225 47.0515C30.0688 47.1979 30.142 47.3789 30.142 47.5964C30.142 47.814 30.0688 47.9828 29.9225 48.1292C29.77 48.2837 29.587 48.3589 29.3775 48.3589C29.1681 48.3589 28.9973 48.2817 28.8428 48.1292ZM28.8001 54.481V49.28H29.9611V54.481H28.8001Z" fill="white"/>
<path d="M33.7165 50.2944H30.9635V49.2798H35.1703V50.2008L32.3034 53.4764H35.1804V54.4808H30.8903V53.5191L33.7165 50.2964V50.2944Z" fill="white"/>
<path d="M40.8329 52.2201H36.8782C36.8843 52.5963 37.0449 52.9196 37.3601 53.188C37.6732 53.4563 38.0229 53.5865 38.4072 53.5804C39.1331 53.5804 39.5926 53.2876 39.7878 52.702L40.7617 53.005C40.6702 53.3181 40.5055 53.5987 40.2656 53.8427C40.0257 54.0866 39.7451 54.2717 39.4238 54.3977C39.0883 54.5157 38.7549 54.5746 38.4194 54.5746C37.6671 54.5889 37.0205 54.3306 36.4837 53.8C35.947 53.2693 35.6847 52.6288 35.6989 51.8745C35.6989 51.3865 35.8107 50.9371 36.0344 50.5244C36.2642 50.0994 36.5793 49.7701 36.9758 49.5403C37.3804 49.2963 37.8277 49.1743 38.3157 49.1743C39.1107 49.1743 39.7309 49.4224 40.1782 49.9165C40.6316 50.4126 40.8593 51.0612 40.8593 51.8623C40.8593 51.9599 40.8532 52.0778 40.839 52.2181L40.8329 52.2201ZM38.3218 50.1686C37.9518 50.1686 37.6447 50.2763 37.4007 50.4939C37.1425 50.7033 36.99 50.9859 36.9412 51.3418H39.6719C39.6516 50.992 39.5153 50.7074 39.2632 50.4837C38.9989 50.2743 38.6837 50.1706 38.3218 50.1706V50.1686Z" fill="white"/>
<path d="M45.4057 54.481V51.5714C45.4057 51.1668 45.3081 50.8496 45.1129 50.6199C44.9177 50.3901 44.631 50.2742 44.2548 50.2742C43.8787 50.2742 43.592 50.3922 43.3765 50.63C43.161 50.8679 43.0532 51.1851 43.0532 51.5816V54.481H41.8922V49.28H43.0227V49.9814C43.1752 49.7801 43.3602 49.6114 43.5778 49.4792C43.7933 49.3532 43.9783 49.2698 44.1329 49.2291C44.3077 49.1946 44.4683 49.1763 44.6147 49.1763C45.2572 49.1763 45.7412 49.3715 46.0685 49.7618C46.3959 50.138 46.5606 50.6443 46.5606 51.2786V54.481H45.4097H45.4057Z" fill="white"/>
<path d="M50.9543 50.7236V51.907H47.7947V50.7236H50.9543Z" fill="white"/>
<path d="M55.9805 54.5744C55.4011 54.5805 54.8419 54.4565 54.3011 54.1983C53.7602 53.9401 53.3089 53.5802 52.9449 53.1207C52.4142 52.466 52.1499 51.6547 52.1499 50.693C52.1499 50.1358 52.2556 49.6052 52.463 49.103C52.6724 48.615 52.9551 48.1961 53.3109 47.8464C53.6728 47.5048 54.0896 47.2364 54.5552 47.0412C55.0371 46.8399 55.5292 46.7383 56.0314 46.7383C56.8345 46.7383 57.5339 46.9294 58.1338 47.3137C58.4123 47.5089 58.6421 47.7081 58.8251 47.9094C59.187 48.3202 59.431 48.7634 59.557 49.2392L58.3737 49.6479C58.3106 49.3693 58.1846 49.0928 57.9975 48.8203C57.8654 48.6312 57.719 48.4787 57.5583 48.3608C57.168 48.0335 56.6556 47.8688 56.0192 47.8688C55.336 47.8688 54.7321 48.1209 54.2096 48.6231C53.6728 49.1457 53.4044 49.8227 53.4044 50.6543C53.4044 51.4859 53.6687 52.1793 54.1994 52.6957C54.7159 53.1979 55.3197 53.45 56.009 53.45C56.5885 53.45 57.0805 53.2935 57.4851 52.9783C57.6742 52.8258 57.8267 52.6713 57.9447 52.5188C58.1602 52.2321 58.3106 51.9393 58.394 51.6404L59.5774 52.0491C59.4025 52.6774 59.0548 53.2142 58.5302 53.6615C58.0768 54.0458 57.5705 54.3101 57.0134 54.4565C56.6779 54.5399 56.3323 54.5826 55.9765 54.5826L55.9805 54.5744Z" fill="white"/>
<path d="M65.3762 52.2201H61.4215C61.4276 52.5963 61.5883 52.9196 61.9034 53.188C62.2165 53.4563 62.5663 53.5865 62.9505 53.5804C63.6764 53.5804 64.1359 53.2876 64.3311 52.702L65.305 53.005C65.2135 53.3181 65.0488 53.5987 64.8089 53.8427C64.569 54.0866 64.2884 54.2717 63.9672 54.3977C63.6317 54.5157 63.2982 54.5746 62.9627 54.5746C62.2104 54.5889 61.5639 54.3306 61.0271 53.8C60.4903 53.2693 60.228 52.6288 60.2422 51.8745C60.2422 51.3865 60.3541 50.9371 60.5777 50.5244C60.8075 50.0994 61.1226 49.7701 61.5191 49.5403C61.9237 49.2963 62.3711 49.1743 62.859 49.1743C63.654 49.1743 64.2742 49.4224 64.7215 49.9165C65.1749 50.4126 65.4026 51.0612 65.4026 51.8623C65.4026 51.9599 65.3965 52.0778 65.3823 52.2181L65.3762 52.2201ZM62.8651 50.1686C62.4951 50.1686 62.1881 50.2763 61.9441 50.4939C61.6859 50.7033 61.5334 50.9859 61.4846 51.3418H64.2152C64.1949 50.992 64.0587 50.7074 63.8065 50.4837C63.5422 50.2743 63.2271 50.1706 62.8651 50.1706V50.1686Z" fill="white"/>
<path d="M69.949 54.481V51.5714C69.949 51.1668 69.8514 50.8496 69.6562 50.6199C69.461 50.3901 69.1743 50.2742 68.7982 50.2742C68.422 50.2742 68.1353 50.3922 67.9198 50.63C67.7043 50.8679 67.5965 51.1851 67.5965 51.5816V54.481H66.4355V49.28H67.566V49.9814C67.7185 49.7801 67.9036 49.6114 68.1211 49.4792C68.3366 49.3532 68.5217 49.2698 68.6762 49.2291C68.8511 49.1946 69.0117 49.1763 69.1581 49.1763C69.8006 49.1763 70.2845 49.3715 70.6118 49.7618C70.9392 50.138 71.1039 50.6443 71.1039 51.2786V54.481H69.9531H69.949Z" fill="white"/>
<path d="M75.2557 49.2798V50.327H73.9382V52.8075C73.9382 53.0373 74.0012 53.2081 74.1273 53.3158C74.2534 53.4236 74.4546 53.4785 74.7332 53.4785C74.8735 53.4785 75.0301 53.4643 75.2049 53.4358V54.4301C74.9467 54.4992 74.6702 54.5338 74.3774 54.5338C73.8406 54.5338 73.438 54.4077 73.1737 54.1576C72.9094 53.9075 72.7752 53.4765 72.7752 52.8706V50.327H71.7708V49.2798H72.7752V47.6675H73.9362V49.2798H75.2537H75.2557Z" fill="white"/>
<path d="M79.0478 49.2576V50.4512C78.9563 50.4308 78.8485 50.4207 78.7245 50.4207C78.2853 50.4207 77.9478 50.5427 77.714 50.7866C77.4801 51.0306 77.3642 51.3803 77.3642 51.8338V54.4811H76.2032V49.28H77.3439V50.0852C77.4903 49.8127 77.6916 49.6033 77.9457 49.4569C78.1999 49.3105 78.4744 49.2373 78.7672 49.2373C78.8444 49.2373 78.938 49.2434 79.0498 49.2576H79.0478Z" fill="white"/>
<path d="M79.8286 48.1292C79.6761 47.9767 79.5989 47.7977 79.5989 47.5964C79.5989 47.3952 79.6761 47.2061 79.8286 47.0515C79.975 46.899 80.154 46.8218 80.3634 46.8218C80.5728 46.8218 80.7619 46.899 80.9083 47.0515C81.0547 47.1979 81.1279 47.3789 81.1279 47.5964C81.1279 47.814 81.0547 47.9828 80.9083 48.1292C80.7558 48.2837 80.5728 48.3589 80.3634 48.3589C80.154 48.3589 79.9832 48.2817 79.8286 48.1292ZM79.7859 54.481V49.28H80.9469V54.481H79.7859Z" fill="white"/>
<path d="M84.6556 54.5746C83.9012 54.5889 83.2587 54.3286 82.724 53.7959C82.1913 53.2611 81.931 52.6186 81.9453 51.8643C81.9453 51.3763 82.0632 50.927 82.3011 50.5142C82.5308 50.1035 82.8582 49.7741 83.2852 49.5301C83.6959 49.2922 84.1574 49.1743 84.6657 49.1743C85.2859 49.1743 85.8125 49.339 86.2456 49.6664C86.6787 49.9876 86.9532 50.3821 87.0731 50.8497L86.026 51.1954C85.963 50.9717 85.8308 50.7602 85.6275 50.5569C85.3896 50.3333 85.0704 50.2214 84.6657 50.2214C84.2408 50.2214 83.8768 50.3719 83.578 50.6708C83.2852 50.9778 83.1388 51.3723 83.1388 51.8541C83.1388 52.336 83.2811 52.7264 83.5678 53.0477C83.8606 53.3608 84.2306 53.5194 84.6779 53.5194C85.3408 53.5194 85.7983 53.1879 86.0484 52.5251L87.1057 52.8708C86.9877 53.2957 86.7295 53.6759 86.331 54.0114C85.8979 54.3876 85.3408 54.5767 84.6576 54.5767L84.6556 54.5746Z" fill="white"/>
<path d="M15.6409 65.7716L14.9292 67.5609H13.7052L16.814 59.9321H18.2271L21.3136 67.5609H20.0672L19.3658 65.7716H15.6409ZM16.0597 64.7042H18.9591L17.5053 61.0829L16.0617 64.7042H16.0597Z" fill="white"/>
<path d="M24.7316 62.3397V63.5332C24.6401 63.5129 24.5323 63.5027 24.4083 63.5027C23.9691 63.5027 23.6316 63.6247 23.3978 63.8687C23.164 64.1127 23.0481 64.4624 23.0481 64.9158V67.5631H21.8871V62.362H23.0277V63.1672C23.1741 62.8947 23.3754 62.6853 23.6296 62.5389C23.8837 62.3925 24.1582 62.3193 24.451 62.3193C24.5283 62.3193 24.6218 62.3254 24.7336 62.3397H24.7316Z" fill="white"/>
<path d="M28.5866 62.3599V63.4071H27.269V65.8876C27.269 66.1174 27.332 66.2882 27.4581 66.3959C27.5842 66.5037 27.7855 66.5586 28.064 66.5586C28.2043 66.5586 28.3609 66.5444 28.5357 66.5159V67.5101C28.2775 67.5793 28.001 67.6138 27.7082 67.6138C27.1714 67.6138 26.7688 67.4878 26.5045 67.2377C26.2402 66.9876 26.106 66.5566 26.106 65.9506V63.4071H25.1016V62.3599H26.106V60.7476H27.267V62.3599H28.5845H28.5866Z" fill="white"/>
<path d="M29.4121 61.2088C29.2596 61.0563 29.1824 60.8773 29.1824 60.676C29.1824 60.4747 29.2596 60.2857 29.4121 60.1311C29.5585 59.9786 29.7374 59.9014 29.9469 59.9014C30.1563 59.9014 30.3454 59.9786 30.4918 60.1311C30.6382 60.2775 30.7114 60.4585 30.7114 60.676C30.7114 60.8936 30.6382 61.0624 30.4918 61.2088C30.3393 61.3633 30.1563 61.4385 29.9469 61.4385C29.7374 61.4385 29.5667 61.3612 29.4121 61.2088ZM29.3694 67.5606V62.3596H30.5304V67.5606H29.3694Z" fill="white"/>
<path d="M35.7294 63.3866H33.4054V67.5629H32.2444V63.3866H31.2501V62.3618H32.2444V61.7559C32.2444 60.9955 32.4355 60.4404 32.8198 60.0927C33.1817 59.7715 33.6331 59.6108 34.1699 59.6108C34.4627 59.6108 34.6782 59.6393 34.8185 59.6942V60.6783C34.7066 60.6498 34.5684 60.6356 34.3996 60.6356C34.1963 60.6356 33.995 60.6946 33.7917 60.8145C33.5335 60.9813 33.4033 61.2923 33.4033 61.7458V62.3639H36.8883V67.5649H35.7273V63.3886L35.7294 63.3866ZM35.5403 60.6763C35.5403 60.4668 35.6175 60.2859 35.77 60.1314C35.9164 59.9789 36.0933 59.9016 36.3027 59.9016C36.5122 59.9016 36.6931 59.9789 36.8477 60.1314C36.9941 60.2777 37.0673 60.4587 37.0673 60.6763C37.0673 60.8938 36.9941 61.0626 36.8477 61.209C36.6952 61.3635 36.5122 61.4387 36.3027 61.4387C36.0933 61.4387 35.9225 61.3615 35.77 61.209C35.6175 61.0565 35.5403 60.8776 35.5403 60.6763Z" fill="white"/>
<path d="M40.5197 67.6562C39.7654 67.6704 39.1229 67.4102 38.5881 66.8774C38.0554 66.3427 37.7952 65.7002 37.8094 64.9459C37.8094 64.4579 37.9273 64.0085 38.1652 63.5958C38.395 63.1851 38.7223 62.8557 39.1493 62.6117C39.56 62.3738 40.0216 62.2559 40.5299 62.2559C41.15 62.2559 41.6766 62.4205 42.1097 62.7479C42.5428 63.0692 42.8173 63.4636 42.9373 63.9313L41.8901 64.2769C41.8271 64.0533 41.6949 63.8418 41.4916 63.6385C41.2537 63.4148 40.9345 63.303 40.5299 63.303C40.1049 63.303 39.741 63.4534 39.4421 63.7523C39.1493 64.0593 39.0029 64.4538 39.0029 64.9357C39.0029 65.4176 39.1452 65.8079 39.4319 66.1292C39.7247 66.4423 40.0948 66.6009 40.5421 66.6009C41.2049 66.6009 41.6624 66.2695 41.9125 65.6067L42.9698 65.9523C42.8519 66.3773 42.5936 66.7575 42.1951 67.093C41.762 67.4691 41.2049 67.6582 40.5217 67.6582L40.5197 67.6562Z" fill="white"/>
<path d="M43.836 61.2088C43.6835 61.0563 43.6062 60.8773 43.6062 60.676C43.6062 60.4747 43.6835 60.2857 43.836 60.1311C43.9824 59.9786 44.1613 59.9014 44.3707 59.9014C44.5801 59.9014 44.7692 59.9786 44.9156 60.1311C45.062 60.2775 45.1352 60.4585 45.1352 60.676C45.1352 60.8936 45.062 61.0624 44.9156 61.2088C44.7631 61.3633 44.5801 61.4385 44.3707 61.4385C44.1613 61.4385 43.9905 61.3612 43.836 61.2088ZM43.7933 67.5606V62.3596H44.9542V67.5606H43.7933Z" fill="white"/>
<path d="M50.3566 67.561H49.2261C49.1916 67.4004 49.1733 67.1625 49.1733 66.8494C48.9984 67.1361 48.7748 67.3414 48.5043 67.4675C48.2258 67.5935 47.9391 67.6566 47.6463 67.6566C47.136 67.6566 46.7171 67.5102 46.3898 67.2174C46.0624 66.9307 45.8977 66.5647 45.8977 66.1194V66.0666C45.9038 65.4037 46.2393 64.9442 46.9021 64.686C47.258 64.5457 47.6422 64.4766 48.053 64.4766H48.7016C49.0228 64.4766 49.1834 64.3302 49.1834 64.0374C49.1834 63.8137 49.096 63.6267 48.9212 63.4722C48.7321 63.3197 48.4779 63.2424 48.1566 63.2424C47.8354 63.2424 47.5955 63.3217 47.3921 63.4783C47.1909 63.6348 47.0689 63.8463 47.0262 64.1106L45.9689 63.8707C46.0034 63.6267 46.1214 63.3644 46.3247 63.0858C46.5402 62.8073 46.8127 62.5978 47.14 62.4576C47.4267 62.3254 47.7785 62.2583 48.1973 62.2583C49.1733 62.2583 49.8219 62.6141 50.1431 63.3258C50.2611 63.584 50.32 63.891 50.32 64.2468V66.7274C50.32 67.0771 50.3302 67.3557 50.3505 67.5651L50.3566 67.561ZM49.1733 65.4586V65.2919H48.053C47.809 65.2919 47.5812 65.3549 47.3718 65.481C47.1624 65.6132 47.0587 65.7921 47.0587 66.0157C47.0587 66.2394 47.136 66.4041 47.2885 66.5342C47.4409 66.6644 47.6402 66.7274 47.8842 66.7274C48.2827 66.7274 48.5958 66.6115 48.8256 66.3817C49.0553 66.152 49.1712 65.845 49.1712 65.4607L49.1733 65.4586Z" fill="white"/>
<path d="M52.6786 59.6289V67.5606H51.5176V59.6289H52.6786Z" fill="white"/>
<path d="M57.774 59.9321V67.5609H56.5804V59.9321H57.774Z" fill="white"/>
<path d="M62.7188 67.5606V64.651C62.7188 64.2464 62.6212 63.9292 62.426 63.6995C62.2308 63.4697 61.9441 63.3538 61.568 63.3538C61.1918 63.3538 60.9051 63.4717 60.6896 63.7096C60.4741 63.9475 60.3663 64.2647 60.3663 64.6612V67.5606H59.2053V62.3596H60.3358V63.061C60.4883 62.8597 60.6733 62.691 60.8909 62.5588C61.1064 62.4328 61.2914 62.3494 61.446 62.3087C61.6208 62.2742 61.7815 62.2559 61.9278 62.2559C62.5704 62.2559 63.0543 62.4511 63.3816 62.8414C63.709 63.2176 63.8737 63.7239 63.8737 64.3582V67.5606H62.7228H62.7188Z" fill="white"/>
<path d="M67.9198 62.3599V63.4071H66.6023V65.8876C66.6023 66.1174 66.6653 66.2882 66.7914 66.3959C66.9174 66.5037 67.1187 66.5586 67.3973 66.5586C67.5376 66.5586 67.6941 66.5444 67.869 66.5159V67.5101C67.6108 67.5793 67.3342 67.6138 67.0414 67.6138C66.5047 67.6138 66.1021 67.4878 65.8378 67.2377C65.5734 66.9876 65.4392 66.5566 65.4392 65.9506V63.4071H64.4348V62.3599H65.4392V60.7476H66.6002V62.3599H67.9178H67.9198Z" fill="white"/>
<path d="M73.4543 65.3021H69.4997C69.5058 65.6782 69.6664 66.0015 69.9815 66.2699C70.2967 66.5383 70.6444 66.6684 71.0287 66.6623C71.7545 66.6623 72.214 66.3695 72.4092 65.784L73.3832 66.0869C73.2917 66.4 73.127 66.6806 72.8871 66.9246C72.6471 67.1686 72.3665 67.3536 72.0453 67.4797C71.7098 67.5976 71.3764 67.6586 71.0409 67.6586C70.2886 67.6728 69.642 67.4146 69.1052 66.8839C68.5684 66.3533 68.3061 65.7128 68.3204 64.9585C68.3204 64.4705 68.4322 64.0211 68.6559 63.6084C68.8856 63.1834 69.2008 62.854 69.5973 62.6243C70.0019 62.3803 70.4492 62.2583 70.9372 62.2583C71.7322 62.2583 72.3523 62.5064 72.7996 63.0004C73.253 63.4965 73.4808 64.1452 73.4808 64.9463C73.4808 65.0439 73.4747 65.1618 73.4604 65.3021H73.4543ZM70.9433 63.2505C70.5732 63.2505 70.2662 63.3583 70.0222 63.5758C69.764 63.7853 69.6115 64.0679 69.5627 64.4237H72.2933C72.273 64.074 72.1368 63.7893 71.8847 63.5657C71.6203 63.3563 71.3052 63.2526 70.9433 63.2526V63.2505Z" fill="white"/>
<path d="M75.5791 59.6289V67.5606H74.4181V59.6289H75.5791Z" fill="white"/>
<path d="M77.9803 59.6289V67.5606H76.8193V59.6289H77.9803Z" fill="white"/>
<path d="M79.2633 61.2088C79.1108 61.0563 79.0336 60.8773 79.0336 60.676C79.0336 60.4747 79.1108 60.2857 79.2633 60.1311C79.4097 59.9786 79.5886 59.9014 79.7981 59.9014C80.0075 59.9014 80.1966 59.9786 80.343 60.1311C80.4894 60.2775 80.5626 60.4585 80.5626 60.676C80.5626 60.8936 80.4894 61.0624 80.343 61.2088C80.1905 61.3633 80.0075 61.4385 79.7981 61.4385C79.5886 61.4385 79.4178 61.3612 79.2633 61.2088ZM79.2206 67.5606V62.3596H80.3816V67.5606H79.2206Z" fill="white"/>
<path d="M83.7894 67.6034C83.0432 67.6034 82.4353 67.335 81.9676 66.7982C81.4939 66.2676 81.256 65.6515 81.256 64.946C81.256 64.2831 81.4817 63.6792 81.9371 63.1364C82.1526 62.872 82.4271 62.6626 82.7586 62.5081C83.09 62.3556 83.4438 62.2783 83.8199 62.2783C84.1127 62.2783 84.4197 62.3475 84.741 62.4877C85.0907 62.6484 85.3509 62.872 85.5258 63.1567V62.3617H86.6563V67.5322C86.6563 68.069 86.5302 68.5407 86.2801 68.9454C86.0158 69.3642 85.6803 69.6672 85.2757 69.8562C84.8569 70.0657 84.3791 70.1694 83.8423 70.1694C82.9903 70.1694 82.3072 69.9111 81.7907 69.3947C81.5264 69.1304 81.3556 68.801 81.2783 68.4106L82.3661 68.0975C82.4292 68.3842 82.5959 68.6241 82.8683 68.8193C83.1408 69.0287 83.4499 69.1344 83.7996 69.1344C84.2733 69.1344 84.6759 69.0043 85.0033 68.742C85.3306 68.4797 85.4953 68.0955 85.4953 67.5851V66.7271C85.3692 66.9284 85.1924 67.1032 84.9626 67.2496C84.7328 67.3899 84.5193 67.4834 84.3242 67.5322C84.1086 67.581 83.9297 67.6054 83.7914 67.6054L83.7894 67.6034ZM85.5156 64.9236C85.5156 64.4641 85.3733 64.0798 85.0866 63.7728C84.8081 63.4657 84.434 63.3133 83.9663 63.3133C83.4987 63.3133 83.1225 63.4657 82.8358 63.7728C82.5491 64.0798 82.4068 64.4641 82.4068 64.9236C82.4068 65.3831 82.5532 65.7714 82.846 66.0846C83.1388 66.4058 83.5129 66.5665 83.9663 66.5665C84.4197 66.5665 84.7938 66.4058 85.0866 66.0846C85.3733 65.7633 85.5156 65.377 85.5156 64.9236Z" fill="white"/>
<path d="M92.7092 65.3021H88.7545C88.7606 65.6782 88.9213 66.0015 89.2364 66.2699C89.5495 66.5383 89.8993 66.6684 90.2835 66.6623C91.0094 66.6623 91.4689 66.3695 91.6641 65.784L92.6381 66.0869C92.5466 66.4 92.3819 66.6806 92.1419 66.9246C91.902 67.1686 91.6214 67.3536 91.3002 67.4797C90.9647 67.5976 90.6312 67.6586 90.2957 67.6586C89.5434 67.6728 88.8969 67.4146 88.3601 66.8839C87.8233 66.3533 87.561 65.7128 87.5753 64.9585C87.5753 64.4705 87.6871 64.0211 87.9107 63.6084C88.1405 63.1834 88.4557 62.854 88.8521 62.6243C89.2568 62.3803 89.7041 62.2583 90.192 62.2583C90.9871 62.2583 91.6072 62.5064 92.0545 63.0004C92.5079 63.4965 92.7356 64.1452 92.7356 64.9463C92.7356 65.0439 92.7295 65.1618 92.7153 65.3021H92.7092ZM90.1981 63.2505C89.8281 63.2505 89.5211 63.3583 89.2771 63.5758C89.0189 63.7853 88.8664 64.0679 88.8176 64.4237H91.5482C91.5279 64.074 91.3917 63.7893 91.1395 63.5657C90.8752 63.3563 90.5601 63.2526 90.1981 63.2526V63.2505Z" fill="white"/>
<path d="M97.1763 67.5606V64.651C97.1763 64.2464 97.0787 63.9292 96.8835 63.6995C96.6883 63.4697 96.4016 63.3538 96.0255 63.3538C95.6493 63.3538 95.3626 63.4717 95.1471 63.7096C94.9316 63.9475 94.8238 64.2647 94.8238 64.6612V67.5606H93.6628V62.3596H94.7933V63.061C94.9458 62.8597 95.1309 62.691 95.3484 62.5588C95.5639 62.4328 95.749 62.3494 95.9035 62.3087C96.0783 62.2742 96.239 62.2559 96.3854 62.2559C97.0279 62.2559 97.5118 62.4511 97.8391 62.8414C98.1665 63.2176 98.3312 63.7239 98.3312 64.3582V67.5606H97.1804H97.1763Z" fill="white"/>
<path d="M101.908 67.6562C101.153 67.6704 100.511 67.4102 99.9761 66.8774C99.4434 66.3427 99.1831 65.7002 99.1973 64.9459C99.1973 64.4579 99.3153 64.0085 99.5531 63.5958C99.7829 63.1851 100.11 62.8557 100.537 62.6117C100.948 62.3738 101.41 62.2559 101.918 62.2559C102.538 62.2559 103.065 62.4205 103.498 62.7479C103.931 63.0692 104.205 63.4636 104.325 63.9313L103.278 64.2769C103.215 64.0533 103.083 63.8418 102.88 63.6385C102.642 63.4148 102.322 63.303 101.918 63.303C101.493 63.303 101.129 63.4534 100.83 63.7523C100.537 64.0593 100.391 64.4538 100.391 64.9357C100.391 65.4176 100.533 65.8079 100.82 66.1292C101.113 66.4423 101.483 66.6009 101.93 66.6009C102.593 66.6009 103.05 66.2695 103.3 65.6067L104.358 65.9523C104.24 66.3773 103.982 66.7575 103.583 67.093C103.15 67.4691 102.593 67.6582 101.91 67.6582L101.908 67.6562Z" fill="white"/>
<path d="M109.974 65.3021H106.019C106.025 65.6782 106.186 66.0015 106.501 66.2699C106.814 66.5383 107.164 66.6684 107.548 66.6623C108.274 66.6623 108.733 66.3695 108.929 65.784L109.902 66.0869C109.811 66.4 109.646 66.6806 109.406 66.9246C109.166 67.1686 108.886 67.3536 108.565 67.4797C108.229 67.5976 107.896 67.6586 107.56 67.6586C106.808 67.6728 106.161 67.4146 105.624 66.8839C105.088 66.3533 104.825 65.7128 104.84 64.9585C104.84 64.4705 104.951 64.0211 105.175 63.6084C105.405 63.1834 105.72 62.854 106.117 62.6243C106.521 62.3803 106.968 62.2583 107.456 62.2583C108.251 62.2583 108.872 62.5064 109.319 63.0004C109.772 63.4965 110 64.1452 110 64.9463C110 65.0439 109.994 65.1618 109.98 65.3021H109.974ZM107.463 63.2505C107.093 63.2505 106.785 63.3583 106.541 63.5758C106.283 63.7853 106.131 64.0679 106.082 64.4237H108.813C108.792 64.074 108.656 63.7893 108.404 63.5657C108.14 63.3563 107.824 63.2526 107.463 63.2526V63.2505Z" fill="white"/>
<path d="M16.9382 80.726C16.074 80.726 15.3929 80.4881 14.8968 80.0144C14.4291 79.5752 14.1668 79.0689 14.1119 78.4976L15.2729 78.1845C15.3563 78.6379 15.5454 78.9937 15.8382 79.2519C16.1391 79.5162 16.5112 79.6504 16.9585 79.6504C17.3346 79.6504 17.664 79.5488 17.9426 79.3475C18.2069 79.1442 18.3411 78.89 18.3411 78.583C18.3411 78.276 18.2394 78.0503 18.0381 77.8612C17.8369 77.6721 17.5603 77.5399 17.2126 77.4627L16.2712 77.2736C15.6633 77.1475 15.1936 76.8974 14.8581 76.5192C14.5166 76.1492 14.3458 75.71 14.3458 75.1997C14.3315 74.5856 14.5796 74.0448 15.0879 73.5771C15.5962 73.1095 16.1859 72.8838 16.8568 72.896C17.8186 72.9021 18.5241 73.1928 18.9714 73.7642C19.2215 74.057 19.3862 74.3965 19.4635 74.7788L18.3431 75.1244C18.2659 74.8255 18.0991 74.5592 17.8409 74.3294C17.5827 74.0997 17.2655 73.9838 16.8894 73.9838C16.5132 73.9838 16.2021 74.0915 15.9581 74.3091C15.6999 74.5246 15.5698 74.7828 15.5698 75.0838C15.5698 75.3135 15.6572 75.527 15.8321 75.7222C16.013 75.9113 16.2469 76.0373 16.5335 76.0983L17.4953 76.2874C18.1642 76.4196 18.6786 76.6778 19.0385 77.0621C19.3984 77.4464 19.5773 77.9242 19.5773 78.4956C19.5773 79.0669 19.3516 79.5833 18.8962 80.0246C18.4082 80.4922 17.7555 80.726 16.9402 80.726H16.9382Z" fill="white"/>
<path d="M22.0232 80.0574L19.7114 75.4419H21.031L22.6535 78.8537L24.15 75.4419H25.4066L21.8382 83.2069H20.604L22.0273 80.0574H22.0232Z" fill="white"/>
<path d="M27.5801 80.7362C26.8054 80.728 26.2361 80.4861 25.8742 80.0042C25.6648 79.7317 25.5489 79.4715 25.5286 79.2194L26.5228 78.9571C26.5777 79.2072 26.6977 79.4085 26.8786 79.5589C27.0596 79.7094 27.2894 79.7846 27.5699 79.7846C27.7997 79.7846 27.9807 79.7317 28.1088 79.6219C28.2369 79.5121 28.3019 79.3658 28.3019 79.1767C28.3019 78.89 28.0966 78.6988 27.6838 78.6012L27.025 78.4447C26.5777 78.339 26.2361 78.156 26.0003 77.8957C25.7624 77.6334 25.6445 77.3223 25.6445 76.9584C25.6445 76.5111 25.8234 76.1288 26.1792 75.8076C26.535 75.4863 26.9701 75.3257 27.4866 75.3257C28.2186 75.3338 28.7533 75.5636 29.0868 76.017C29.2616 76.2467 29.3653 76.4806 29.3999 76.7185L28.4259 76.9909C28.3771 76.7754 28.2755 76.6005 28.1169 76.4684C27.9603 76.3362 27.7489 76.2691 27.4846 76.2691C27.2894 76.2691 27.1226 76.324 26.9823 76.4358C26.842 76.5334 26.7729 76.6737 26.7729 76.8547C26.7729 77.1475 26.9478 77.3284 27.2955 77.3996L28.0071 77.546C28.4747 77.6517 28.8367 77.8428 29.0949 78.1214C29.3531 78.4142 29.4832 78.7456 29.4832 79.1157C29.4832 79.5548 29.3165 79.9351 28.9871 80.2563C28.6557 80.5776 28.186 80.7382 27.5801 80.7382V80.7362Z" fill="white"/>
<path d="M33.4094 75.4415V76.4886H32.0919V78.9692C32.0919 79.1989 32.1549 79.3697 32.281 79.4775C32.407 79.5852 32.6083 79.6401 32.8869 79.6401C33.0272 79.6401 33.1837 79.6259 33.3586 79.5974V80.5917C33.1004 80.6608 32.8239 80.6954 32.5311 80.6954C31.9943 80.6954 31.5917 80.5693 31.3274 80.3192C31.0631 80.0692 30.9289 79.6381 30.9289 79.0322V76.4886H29.9244V75.4415H30.9289V73.8291H32.0899V75.4415H33.4074H33.4094Z" fill="white"/>
<path d="M38.944 78.3817H34.9893C34.9954 78.7578 35.156 79.0811 35.4712 79.3495C35.7843 79.6179 36.134 79.748 36.5183 79.7419C37.2442 79.7419 37.7037 79.4491 37.8989 78.8635L38.8728 79.1665C38.7813 79.4796 38.6166 79.7602 38.3767 80.0042C38.1368 80.2482 37.8562 80.4332 37.5349 80.5593C37.1994 80.6772 36.866 80.7382 36.5305 80.7382C35.7782 80.7524 35.1316 80.4942 34.5948 79.9635C34.0581 79.4329 33.7958 78.7924 33.81 78.038C33.81 77.5501 33.9218 77.1007 34.1455 76.688C34.3752 76.263 34.6904 75.9336 35.0869 75.7039C35.4915 75.4599 35.9388 75.3379 36.4268 75.3379C37.2218 75.3379 37.8419 75.5859 38.2892 76.08C38.7427 76.5761 38.9704 77.2247 38.9704 78.0258C38.9704 78.1234 38.9643 78.2414 38.9501 78.3817H38.944ZM36.4329 76.3301C36.0628 76.3301 35.7558 76.4379 35.5118 76.6554C35.2536 76.8649 35.1011 77.1475 35.0523 77.5033H37.783C37.7626 77.1536 37.6264 76.8689 37.3743 76.6453C37.11 76.4358 36.7948 76.3322 36.4329 76.3322V76.3301Z" fill="white"/>
<path d="M43.3175 80.6426V77.7229C43.3175 77.3183 43.226 77.0011 43.041 76.7713C42.856 76.5416 42.5794 76.4257 42.2094 76.4257C41.8393 76.4257 41.5669 76.5436 41.3717 76.7815C41.1623 77.0316 41.0586 77.3528 41.0586 77.7432V80.6426H39.8976V75.4416H41.0281V76.143C41.1887 75.9275 41.3697 75.7588 41.573 75.6408C41.7885 75.5005 41.9674 75.4151 42.1077 75.3786C42.2826 75.344 42.4432 75.3257 42.5896 75.3257C43.3358 75.3257 43.8706 75.6083 44.1898 76.1736C44.4399 75.895 44.7123 75.6774 45.0071 75.5249C45.2796 75.3928 45.611 75.3257 46.0014 75.3257C46.6358 75.3257 47.1177 75.529 47.445 75.9336C47.7439 76.3179 47.8944 76.8161 47.8944 77.4301V80.6426H46.7334V77.7127C46.7334 77.3081 46.6398 76.9929 46.4569 76.7652C46.2718 76.5395 45.9953 76.4257 45.6253 76.4257C45.2552 76.4257 44.9827 76.5436 44.7876 76.7815C44.5781 77.0255 44.4744 77.3427 44.4744 77.7331V80.6426H43.3236H43.3175Z" fill="white"/>
<path d="M50.7958 80.7362C50.0211 80.728 49.4518 80.4861 49.0899 80.0042C48.8805 79.7317 48.7646 79.4715 48.7443 79.2194L49.7385 78.9571C49.7934 79.2072 49.9134 79.4085 50.0943 79.5589C50.2753 79.7094 50.5051 79.7846 50.7856 79.7846C51.0154 79.7846 51.1964 79.7317 51.3245 79.6219C51.4526 79.5121 51.5176 79.3658 51.5176 79.1767C51.5176 78.89 51.3123 78.6988 50.8995 78.6012L50.2407 78.4447C49.7934 78.339 49.4518 78.156 49.216 77.8957C48.9781 77.6334 48.8602 77.3223 48.8602 76.9584C48.8602 76.5111 49.0391 76.1288 49.3949 75.8076C49.7507 75.4863 50.1858 75.3257 50.7023 75.3257C51.4343 75.3338 51.969 75.5636 52.3025 76.017C52.4773 76.2467 52.581 76.4806 52.6156 76.7185L51.6416 76.9909C51.5928 76.7754 51.4912 76.6005 51.3326 76.4684C51.176 76.3362 50.9646 76.2691 50.7003 76.2691C50.5051 76.2691 50.3383 76.324 50.198 76.4358C50.0577 76.5334 49.9886 76.6737 49.9886 76.8547C49.9886 77.1475 50.1635 77.3284 50.5112 77.3996L51.2228 77.546C51.6904 77.6517 52.0524 77.8428 52.3106 78.1214C52.5688 78.4142 52.6989 78.7456 52.6989 79.1157C52.6989 79.5548 52.5322 79.9351 52.2028 80.2563C51.8714 80.5776 51.4017 80.7382 50.7958 80.7382V80.7362Z" fill="white"/>
<path d="M80.3573 0C78.3017 0 76.5815 1.76689 76.5815 3.81844C76.5815 5.86999 78.3017 7.59419 80.3573 7.59419C82.4129 7.59419 84.1757 5.87406 84.1757 3.81844C84.1757 1.76283 82.4597 0 80.3573 0ZM80.3776 10.459C79.4342 10.459 78.5802 10.8413 77.9662 11.4594C77.3481 12.0775 76.9658 12.9315 76.9658 13.8708V34.3416H83.7935V13.8708C83.7935 11.988 82.2645 10.459 80.3776 10.459Z" fill="white"/>
<path d="M93.5754 17.2398C93.5754 15.9507 94.8157 15.2838 96.3447 15.2838C98.1116 15.2838 99.4495 16.1906 100.163 17.7176L105.419 14.8528C103.559 11.5609 100.212 9.79199 96.3447 9.79199C91.4243 9.79199 87.2703 12.5125 87.2703 17.3862C87.2703 25.7916 99.5898 23.8824 99.5898 27.3674C99.5898 28.7521 98.254 29.419 96.2939 29.419C93.9069 29.419 92.2843 28.2742 91.6134 26.3183L86.2618 29.3275C87.982 33.0036 91.5178 35.0104 96.2919 35.0104C101.403 35.0104 105.893 32.5278 105.893 27.3674C105.893 18.5797 93.5734 20.7776 93.5734 17.2418L93.5754 17.2398Z" fill="white"/>
<path d="M73.1066 22.3922C73.1066 22.6078 73.0924 34.3396 73.0924 34.3396H67.0252V32.5524C61.6127 36.9767 53.8436 34.8906 50.3668 29.777C51.7514 27.9735 53.0039 26.0826 54.295 24.2364C55.092 26.9284 57.5868 28.8966 60.533 28.8966C66.2912 28.9352 69.2069 21.7762 65.1322 17.7951C63.3267 15.9346 60.3643 15.3592 57.9894 16.4063C54.5756 17.8845 51.4607 23.9294 48.9028 27.1704C47.8476 28.6201 46.7272 30.0291 45.4748 31.2836C40.5706 36.1838 32.5962 36.1817 27.692 31.2836C27.2182 30.8099 26.7933 30.3097 26.411 29.7851C27.7957 27.9776 29.0522 26.0785 30.3454 24.2303C31.6121 28.8763 37.8175 30.4846 41.1826 26.9915C44.9034 23.1832 47.7866 17.2969 51.6416 13.5029C54.4251 10.7051 58.5404 9.33674 62.4422 9.96501C68.4424 10.8535 73.1371 16.1746 73.1066 22.3922Z" fill="white"/>
<path d="M44.2609 12.423L40.5198 17.2153C37.9741 15.2756 34.3061 15.4708 31.9821 17.7948C28.3202 21.5238 25.4168 27.4222 21.5231 31.2875C16.6209 36.1835 8.64449 36.1856 3.74232 31.2875C-7.23317 19.5027 8.25817 3.25909 20.3092 12.4819L16.5965 17.2357C14.0468 15.2756 10.3687 15.4545 8.03045 17.7928C2.16452 24.0897 10.9238 32.8632 17.235 26.9892C21.4519 22.7153 24.2985 16.0401 29.1458 12.2501C33.5355 8.94 39.9403 9.07419 44.2589 12.4189L44.2609 12.423Z" fill="white"/>
<path d="M2.52649 46.771H1.46716V80.8523H2.52649V46.771Z" fill="white"/>
</svg>
