<svg width="91" height="30" viewBox="0 0 91 30" fill="none" xmlns="http://www.w3.org/2000/svg">
<path d="M68.8553 0C67.0928 0 65.6194 1.51272 65.6194 3.27063C65.6194 5.02853 67.0928 6.50656 68.8553 6.50656C70.6178 6.50656 72.1259 5.03315 72.1259 3.27063C72.1259 1.5081 70.6548 0 68.8553 0ZM68.8738 8.96068C68.0666 8.96068 67.3333 9.28682 66.806 9.8165C66.2763 10.3462 65.9501 11.0794 65.9501 11.8844V29.4264H71.7998V11.8844C71.7998 10.2722 70.4883 8.96068 68.8738 8.96068Z" fill="white"/>
<path d="M80.1821 14.7733C80.1821 13.6677 81.2438 13.0964 82.5553 13.0964C84.068 13.0964 85.2153 13.8735 85.8259 15.1827L90.3294 12.7286C88.7334 9.90901 85.8676 8.39166 82.5553 8.39166C78.3387 8.39166 74.7812 10.7232 74.7812 14.8982C74.7812 22.101 85.3379 20.4634 85.3379 23.4518C85.3379 24.6384 84.1929 25.2097 82.5137 25.2097C80.4666 25.2097 79.0788 24.229 78.5029 22.552L73.9185 25.1311C75.3919 28.2814 78.4219 30 82.5137 30C86.8922 30 90.7388 27.872 90.7388 23.4518C90.7388 15.9229 80.1821 17.8034 80.1821 14.7756V14.7733Z" fill="white"/>
<path d="M62.6425 19.1889C62.6425 19.3739 62.6286 29.4263 62.6286 29.4263H57.4289V27.8951C52.7913 31.6862 46.1344 29.9005 43.1529 25.5173C44.3395 23.9722 45.4127 22.3531 46.5184 20.771C47.203 23.0771 49.338 24.7633 51.8638 24.7633C56.7975 24.798 59.2956 18.6615 55.8052 15.2498C54.2578 13.6561 51.7181 13.1634 49.6849 14.0586C46.7612 15.3261 44.0897 20.505 41.8993 23.2829C40.9949 24.525 40.035 25.7324 38.9617 26.808C34.7589 31.0061 27.9262 31.0038 23.7258 26.808C23.321 26.4032 22.9555 25.973 22.6294 25.5242C23.816 23.9745 24.8939 22.3485 26.0018 20.764C27.0889 24.7448 32.4043 26.1233 35.2886 23.1303C38.4783 19.8666 40.9486 14.8242 44.2493 11.572C46.634 9.17575 50.1614 8.00073 53.5037 8.53966C58.6456 9.30065 62.668 13.8596 62.6425 19.1889Z" fill="white"/>
<path d="M37.9253 10.6446L34.7195 14.7525C32.5383 13.0917 29.3949 13.2583 27.4034 15.2498C24.2646 18.4464 21.7781 23.5004 18.4427 26.8103C14.2422 31.0062 7.40722 31.0085 3.20675 26.8103C-6.19803 16.7116 7.07645 2.79414 17.4018 10.6954L14.2214 14.7687C12.0356 13.0894 8.88524 13.2444 6.88216 15.2475C1.85594 20.6438 9.36173 28.1611 14.7696 23.128C18.3825 19.4665 20.8228 13.7463 24.9747 10.4988C28.7357 7.66306 34.2245 7.77872 37.9253 10.6446Z" fill="white"/>
</svg>
