<svg width="255" height="76" viewBox="0 0 255 76" fill="none" xmlns="http://www.w3.org/2000/svg">
<g id="UKRI logo white">
<path id="Vector" d="M104.702 26.3471C104.702 31.5995 101.621 33.7983 97.8807 33.7983C94.1404 33.7983 91.0121 31.5995 91.0121 26.3471V16.5751H94.3883V26.1028C94.3883 28.8857 95.5542 30.5745 97.8807 30.5745C100.207 30.5745 101.326 28.891 101.326 26.1028V16.5751H104.697V26.3471H104.702Z" fill="white"/>
<path id="Vector_2" d="M112.325 26.4692H110.916V33.6761H107.667V16.5751H110.916V23.2933H112.277L116.572 16.5751H120.286L114.994 24.8813L121.014 33.6761H117.279L112.33 26.4692H112.325Z" fill="white"/>
<path id="Vector_3" d="M138.217 33.6761L134.603 27.3986H132.588V33.6761H129.507V16.5751H135.5C138.291 16.5751 140.765 18.4551 140.765 21.8275C140.765 24.1749 139.457 25.9541 137.705 26.8144L141.804 33.6814H138.212L138.217 33.6761ZM132.588 24.3661H135.257C136.64 24.3661 137.563 23.2933 137.563 21.8753C137.563 20.4573 136.618 19.6288 135.257 19.6288H132.588V24.3714V24.3661Z" fill="white"/>
<path id="Vector_4" d="M154.212 28.4979H145.355C145.719 30.3567 147.222 31.0365 148.536 31.0365C150.187 31.0365 150.889 30.0115 150.889 30.0115H153.949C153.025 32.4545 150.82 33.7981 148.441 33.7981C145.165 33.7981 142.3 31.2808 142.3 27.4676C142.3 23.6544 145.139 21.3335 148.346 21.3335C151.554 21.3335 154.608 23.5056 154.218 28.4926L154.212 28.4979ZM145.55 26.0283H151.01C150.646 24.5891 149.649 23.9996 148.436 23.9996C147.101 23.9996 146.035 24.759 145.55 26.0283Z" fill="white"/>
<path id="Vector_5" d="M160.838 23.9253C159.82 23.9253 159.382 24.4405 159.382 24.9503C159.382 25.7788 160.474 26.0231 161.202 26.1718C163.36 26.6339 165.544 27.2977 165.544 29.8841C165.544 32.4705 163.481 33.7929 160.981 33.7929C158.19 33.7929 156.027 32.0828 155.885 29.4911H158.87C158.944 30.224 159.43 31.1747 160.907 31.1747C162.147 31.1747 162.437 30.5161 162.437 30.001C162.437 29.0981 161.587 28.8273 160.764 28.6308C159.335 28.3121 156.249 27.7279 156.249 24.9397C156.249 22.5445 158.528 21.323 160.886 21.323C163.603 21.323 165.401 22.9853 165.544 25.0353H162.558C162.463 24.6211 162.073 23.9094 160.833 23.9094L160.838 23.9253Z" fill="white"/>
<path id="Vector_6" d="M178.97 28.4979H170.112C170.476 30.3567 171.98 31.0365 173.294 31.0365C174.945 31.0365 175.646 30.0115 175.646 30.0115H178.706C177.783 32.4545 175.578 33.7981 173.199 33.7981C169.923 33.7981 167.058 31.2808 167.058 27.4676C167.058 23.6544 169.896 21.3335 173.104 21.3335C176.311 21.3335 179.366 23.5056 178.975 28.4926L178.97 28.4979ZM170.308 26.0283H175.768C175.404 24.5891 174.407 23.9996 173.193 23.9996C171.859 23.9996 170.793 24.759 170.308 26.0283Z" fill="white"/>
<path id="Vector_7" d="M192.438 31.3292V33.6766H191.71C190.302 33.6766 189.31 33.1615 188.893 32.1152C188.165 33.119 186.952 33.7988 185.058 33.7988C182.315 33.7988 180.569 32.3808 180.569 30.1821C180.569 26.3689 185.739 26.029 188.07 25.9068C188.023 24.4888 187.247 23.979 186.008 23.979C184.283 23.979 184.161 25.0305 184.161 25.0305H181.128C181.344 22.8584 183.117 21.3395 186.076 21.3395C189.036 21.3395 191.003 22.7787 191.003 26.3211V29.5713C191.003 30.9893 191.515 31.3292 192.433 31.3292H192.438ZM188.023 28.5463V28.302C185.812 28.5463 183.628 28.8172 183.628 30.0865C183.628 31.9453 187.828 31.7966 188.023 28.5463Z" fill="white"/>
<path id="Vector_8" d="M201.997 21.3395V24.4676C201.755 24.4198 201.343 24.372 200.932 24.372C199.233 24.372 197.46 25.2536 197.46 27.5001V33.682H194.232V21.4669H196.706L197.144 22.8106H197.534C198.067 22.2742 199.259 21.3448 201.248 21.3448H202.003L201.997 21.3395Z" fill="white"/>
<path id="Vector_9" d="M208.866 33.7981C205.495 33.7981 202.725 31.1852 202.725 27.5897C202.725 23.9942 205.59 21.3335 208.987 21.3335C211.752 21.3335 214.11 23.0702 214.79 25.9274H211.488C210.976 24.9237 210.079 24.2917 208.913 24.2917C207.215 24.2917 205.854 25.6619 205.854 27.5632C205.854 29.4645 207.215 30.84 208.913 30.84C210.005 30.84 210.855 30.277 211.388 29.3742H214.711C213.936 32.2792 211.435 33.7981 208.861 33.7981H208.866Z" fill="white"/>
<path id="Vector_10" d="M228.354 27.0532V33.6759H225.099V27.7861C225.099 26.5912 225.294 24.1694 223.11 24.1694C222.044 24.1694 219.981 24.7324 219.981 27.9295V33.6706H216.732V16.3306H219.813V22.7302H220.224C220.804 22.1194 221.923 21.3387 223.716 21.3387C226.845 21.3387 228.354 23.6861 228.354 27.0585V27.0532Z" fill="white"/>
<path id="Vector_11" d="M102.64 56.3591V58.7066H101.912C100.503 58.7066 99.5112 58.1914 99.0945 57.1452C98.3664 58.1489 97.1531 58.8287 95.2592 58.8287C92.516 58.8287 90.7698 57.4107 90.7698 55.212C90.7698 51.3988 95.9397 51.0589 98.2715 50.9367C98.224 49.5187 97.4485 49.0089 96.2088 49.0089C94.4837 49.0089 94.3624 50.0604 94.3624 50.0604H91.329C91.5453 47.8883 93.3178 46.3694 96.2826 46.3694C99.2474 46.3694 101.21 47.8086 101.21 51.351V54.6012C101.21 56.0193 101.722 56.3591 102.64 56.3591ZM98.224 53.5762V53.3319C96.0136 53.5762 93.8296 53.8471 93.8296 55.1164C93.8296 56.9752 98.0288 56.8265 98.224 53.5762Z" fill="white"/>
<path id="Vector_12" d="M116.087 52.084V58.7066H112.858V52.8169C112.858 52.4026 113.148 49.3223 110.816 49.2001C109.677 49.1258 107.635 49.7631 107.635 52.9602V58.7013H104.433V46.4863H106.907L107.319 47.9786H107.73C108.242 47.3679 109.381 46.3641 111.418 46.3641C114.546 46.3641 116.076 48.7115 116.076 52.0786L116.087 52.084Z" fill="white"/>
<path id="Vector_13" d="M129.993 41.3559V58.7012H127.614L127.276 57.5275H126.912C126.158 58.356 125.139 58.8234 123.831 58.8234C120.75 58.8234 118.176 56.2795 118.176 52.5937C118.176 48.908 120.75 46.3641 123.831 46.3641C125.092 46.3641 126.184 46.8049 126.96 47.6812V41.3506H129.993V41.3559ZM126.96 52.5937C126.96 50.565 125.867 49.37 124.29 49.37C122.808 49.37 121.331 50.4428 121.331 52.5937C121.331 54.7446 122.813 55.8174 124.29 55.8174C125.867 55.8174 126.96 54.6225 126.96 52.5937Z" fill="white"/>
<path id="Vector_14" d="M142.828 58.7059H139.457V41.6049H142.828V58.7059Z" fill="white"/>
<path id="Vector_15" d="M157.488 52.084V58.7066H154.26V52.8169C154.26 52.4026 154.55 49.3223 152.218 49.2001C151.079 49.1258 149.037 49.7631 149.037 52.9602V58.7013H145.835V46.4863H148.309L148.72 47.9786H149.132C149.644 47.3679 150.783 46.3641 152.819 46.3641C155.948 46.3641 157.478 48.7115 157.478 52.0786L157.488 52.084Z" fill="white"/>
<path id="Vector_16" d="M171.758 52.084V58.7066H168.53V52.8169C168.53 52.4026 168.82 49.3223 166.488 49.2001C165.349 49.1258 163.307 49.7631 163.307 52.9602V58.7013H160.105V46.4863H162.579L162.99 47.9786H163.402C163.914 47.3679 165.053 46.3641 167.09 46.3641C170.218 46.3641 171.748 48.7115 171.748 52.0786L171.758 52.084Z" fill="white"/>
<path id="Vector_17" d="M173.842 52.6203C173.842 48.7115 176.855 46.3641 180.104 46.3641C183.354 46.3641 186.245 48.7328 186.245 52.5725C186.245 56.4123 183.285 58.8288 180.009 58.8288C176.733 58.8288 173.842 56.4601 173.842 52.6203ZM183.064 52.5938C183.064 50.6872 181.945 49.1948 180.104 49.1948C178.263 49.1948 177.023 50.6872 177.023 52.5938C177.023 54.5004 178.263 55.9874 180.104 55.9874C181.945 55.9874 183.064 54.4951 183.064 52.5938Z" fill="white"/>
<path id="Vector_18" d="M199.497 46.4863L195.567 58.7013H190.861L186.931 46.4863H190.159L192.976 55.4776H193.462L196.279 46.4863H199.507H199.497Z" fill="white"/>
<path id="Vector_19" d="M212.432 56.3591V58.7066H211.704C210.296 58.7066 209.304 58.1914 208.887 57.1452C208.159 58.1489 206.946 58.8287 205.052 58.8287C202.309 58.8287 200.562 57.4107 200.562 55.212C200.562 51.3988 205.732 51.0589 208.064 50.9367C208.017 49.5187 207.241 49.0089 206.001 49.0089C204.276 49.0089 204.155 50.0604 204.155 50.0604H201.122C201.338 47.8883 203.111 46.3694 206.07 46.3694C209.03 46.3694 210.997 47.8086 210.997 51.351V54.6012C210.997 56.0193 211.509 56.3591 212.427 56.3591H212.432ZM208.017 53.5762V53.3319C205.806 53.5762 203.622 53.8471 203.622 55.1164C203.622 56.9752 207.822 56.8265 208.017 53.5762Z" fill="white"/>
<path id="Vector_20" d="M222.192 57.7982C222.192 57.7982 221.174 58.8232 219.306 58.8232C216.974 58.8232 214.959 57.2353 214.959 54.7657V49.099H212.532V46.7038H213.746C214.569 46.7038 215.128 46.1408 215.128 45.2645V42.8215H218.066V46.486H221.126V49.099H218.066V54.5745C218.066 55.403 218.747 56.0403 219.617 56.0403C220.345 56.0403 221.026 55.6261 221.026 55.6261L222.192 57.7982Z" fill="white"/>
<path id="Vector_21" d="M222.988 43.0664C222.988 41.8927 223.933 40.9899 225.078 40.9899C226.222 40.9899 227.114 41.8927 227.114 43.0664C227.114 44.1658 226.191 45.1164 225.078 45.1164C223.964 45.1164 222.988 44.1658 222.988 43.0664ZM226.629 58.7016H223.521V46.4866H226.629V58.7016Z" fill="white"/>
<path id="Vector_22" d="M228.886 52.6203C228.886 48.7115 231.899 46.3641 235.148 46.3641C238.398 46.3641 241.289 48.7328 241.289 52.5725C241.289 56.4123 238.329 58.8288 235.053 58.8288C231.777 58.8288 228.886 56.4601 228.886 52.6203ZM238.108 52.5938C238.108 50.6872 236.989 49.1948 235.148 49.1948C233.307 49.1948 232.067 50.6872 232.067 52.5938C232.067 54.5004 233.307 55.9874 235.148 55.9874C236.989 55.9874 238.108 54.4951 238.108 52.5938Z" fill="white"/>
<path id="Vector_23" d="M255 52.084V58.7066H251.771V52.8169C251.771 52.4026 252.062 49.3223 249.73 49.2001C248.59 49.1258 246.549 49.7631 246.549 52.9602V58.7013H243.347V46.4863H245.821L246.232 47.9786H246.644C247.155 47.3679 248.295 46.3641 250.331 46.3641C253.46 46.3641 254.989 48.7115 254.989 52.0786L255 52.084Z" fill="white"/>
<path id="Vector_24" d="M24.9213 43.5656H16.9448V50.1829H24.9213C28.2027 50.1829 29.5321 48.8605 29.5321 46.853C29.5321 44.8455 28.2027 43.5656 24.9213 43.5656Z" fill="white"/>
<path id="Vector_25" d="M38.495 46.853C38.495 51.8187 35.6674 54.6706 30.1915 55.685L37.3819 65.1755V61.0596H47.6005V43.5656H37.978C38.321 44.5374 38.495 45.6262 38.495 46.853Z" fill="white"/>
<path id="Vector_26" d="M37.387 42.2743V28.6572C35.8043 33.9893 30.5816 37.059 24.9263 37.6379C31.2622 37.6539 35.53 39.1197 37.387 42.2743Z" fill="white"/>
<path id="Vector_27" d="M46.1023 37.6386H57.8244L46.1023 25.0359V37.6386Z" fill="white"/>
<path id="Vector_28" d="M0 0V75.2711H74.7691V0H0ZM66.5394 10.1013L54.0418 22.943L66.5394 35.8219V43.5651H56.3208V61.0592H66.5394V66.9861H28.8093L20.7537 56.1094H16.9448V66.9861H8.22972V37.6329H21.0755C14.2648 36.9319 8.22972 32.6141 8.22972 25.0886V8.28497H16.9501V24.9664C16.9501 28.5354 19.5772 30.6119 23.059 30.6119C26.5408 30.6119 29.168 28.5407 29.168 24.9664V8.28497H46.1023V20.8505L57.8243 8.28497H66.5447V10.1013H66.5394Z" fill="white"/>
</g>
</svg>
