<svg width="220" height="47" viewBox="0 0 220 47" fill="none" xmlns="http://www.w3.org/2000/svg">
<path d="M69.2528 12.0499C69.2528 14.7465 67.0444 16.6972 63.9736 16.6972C60.9028 16.6972 58.6944 14.7465 58.6944 12.0499V3.82991H60.8937V12.0499C60.8937 13.7108 62.1234 14.7899 63.9759 14.7899C65.8398 14.7899 67.0558 13.713 67.0558 12.0499V3.82991H69.2551V12.0499H69.2528Z" fill="white"/>
<path d="M76.3342 7.1773C77.9791 7.1773 79.4187 8.24957 79.4187 10.5652V16.4399H77.3928V10.7067C77.3928 9.51804 76.681 8.97734 75.7548 8.97734C74.9768 8.97734 73.9638 9.35378 73.1266 10.061V16.4399H71.1006V7.42826H73.1266V8.5279C74.0984 7.61077 75.3008 7.17502 76.3365 7.17502L76.3342 7.1773Z" fill="white"/>
<path d="M83.6602 4.93836C83.6602 5.59541 83.1195 6.12698 82.451 6.12698C81.7826 6.12698 81.2419 5.59541 81.2419 4.93836C81.2419 4.28131 81.7826 3.74974 82.451 3.74974C83.1195 3.74974 83.6602 4.28131 83.6602 4.93836ZM81.4381 16.4413V7.42967H83.464V16.4413H81.4381Z" fill="white"/>
<path d="M90.2781 16.447H88.113L84.5129 7.43536H86.662L89.2013 14.2728L91.7291 7.43536H93.8782L90.2781 16.447Z" fill="white"/>
<path d="M102.878 12.0213C102.878 12.1604 102.874 12.2973 102.865 12.4342H96.2646C96.2691 12.489 96.276 12.5414 96.2851 12.5939C96.4927 14.0198 97.4144 14.9255 98.7581 14.9255C99.6707 14.9255 100.631 14.654 101.614 14.1453L102.103 15.4708C101.065 16.2693 99.8099 16.6959 98.6258 16.6959C95.9315 16.6959 94.1542 14.5696 94.1542 11.9391C94.1542 9.30866 95.9246 7.1664 98.6053 7.18009C101.409 7.18009 102.888 9.24022 102.881 12.0236L102.878 12.0213ZM96.317 11.0083H100.825C100.636 9.75354 99.981 8.94363 98.6555 8.94363C97.4007 8.94363 96.568 9.76038 96.3147 11.0083H96.317Z" fill="white"/>
<path d="M110.222 7.17725L109.876 9.14384C109.784 9.13472 109.689 9.13244 109.591 9.13472C108.578 9.13472 107.425 9.5545 106.472 10.3667V16.4467H104.446V7.43506H106.472V8.67387C107.517 7.68373 108.835 7.17041 109.983 7.17041C110.065 7.17041 110.145 7.17041 110.225 7.17725H110.222Z" fill="white"/>
<path d="M114.482 7.17743C115.675 7.17743 117.069 7.50824 117.941 8.35692L117.094 9.68015C116.522 9.11208 115.513 8.81321 114.551 8.81093C113.592 8.81093 112.924 9.14402 112.906 9.8581C112.887 10.4011 113.273 10.6018 114.786 10.992C116.259 11.3707 118.24 11.8064 118.244 13.846C118.251 15.929 116.159 16.6932 114.35 16.6932C112.899 16.6932 111.414 16.2005 110.663 15.2674L111.509 13.9396C112.062 14.6787 113.2 15.0666 114.279 15.0689C115.402 15.0689 116.225 14.6286 116.23 13.8802C116.234 13.1274 115.424 12.9996 114.227 12.6802C111.945 12.0825 110.903 11.5509 110.905 9.97902C110.903 7.91661 112.689 7.17971 114.48 7.17971L114.482 7.17743Z" fill="white"/>
<path d="M121.962 4.93836C121.962 5.59541 121.422 6.12698 120.753 6.12698C120.085 6.12698 119.544 5.59541 119.544 4.93836C119.544 4.28131 120.085 3.74974 120.753 3.74974C121.422 3.74974 121.962 4.28131 121.962 4.93836ZM119.74 16.4413V7.42967H121.766V16.4413H119.74Z" fill="white"/>
<path d="M129.683 16.078C129.008 16.4612 128.191 16.6894 127.415 16.694C125.973 16.6985 124.671 15.9274 124.671 13.9152V9.04206H122.909V7.75762L124.586 7.43138H124.671V4.92638H126.696V7.43138H129.245V9.04206H126.696V13.7692C126.696 14.6749 127.258 14.9601 127.947 14.9578C128.371 14.9578 128.836 14.846 129.229 14.7114L129.683 16.078Z" fill="white"/>
<path d="M134.748 20.0516H132.886L134.326 16.4173L130.359 7.43536H132.56L135.293 13.9762L137.88 7.43536H140L134.753 20.0516H134.748Z" fill="white"/>
<path d="M154.284 11.9366C154.284 14.5671 152.461 16.6933 149.653 16.6933C146.844 16.6933 145.024 14.5671 145.024 11.9366C145.024 9.30609 146.865 7.16155 149.653 7.17752C152.461 7.17752 154.284 9.30381 154.284 11.9366ZM147.104 11.9366C147.104 13.6636 148.092 14.8796 149.653 14.8796C151.213 14.8796 152.201 13.6796 152.201 11.9366C152.201 10.1936 151.231 8.99353 149.653 8.99353C148.074 8.99353 147.088 10.2095 147.104 11.9366Z" fill="white"/>
<path d="M158.764 6.92393V7.43041H161.322V9.04109H158.764V16.442H156.738V9.04109H154.977V7.75665L156.654 7.43041H156.738V7.03344C156.738 4.57863 158.098 3.46301 159.848 3.46757C160.681 3.46757 161.637 3.71625 162.545 4.19991L162.054 5.6007C161.367 5.3315 160.724 5.19233 160.145 5.19689C159.271 5.19689 158.764 5.80603 158.764 6.92393Z" fill="white"/>
<path d="M54.3552 22.5399L51.9962 25.4373C50.7711 24.454 49.0327 23.74 46.8904 23.7377C44.9466 23.74 43.612 24.3445 43.5207 26.0807C43.4705 27.2214 44.0409 27.6161 47.625 28.5811C50.7027 29.4116 54.7385 30.3721 54.7682 34.7843C54.7978 39.3677 50.3878 41.1655 46.7558 41.1655C43.6371 41.1655 40.2446 39.8514 38.5404 37.668L40.9838 34.9303C42.2591 36.4931 44.6569 37.3966 46.7581 37.3897C49.0053 37.3966 50.292 36.3859 50.3057 34.9281C50.3331 33.3995 49.0806 33.0938 46.2356 32.3044C41.3739 30.947 39.0628 29.9226 39.0583 26.2974C39.0651 21.6867 42.8409 19.9414 46.9269 19.9414C50.0296 19.9414 52.6099 20.9635 54.3552 22.5376V22.5399Z" fill="white"/>
<path d="M71.7641 33.4677C71.7641 37.7248 68.7047 41.1652 63.9913 41.1652C59.2779 41.1652 56.2185 37.7248 56.2185 33.4677C56.2185 29.2105 59.3098 25.7428 63.9913 25.7724C68.7047 25.7724 71.7641 29.2128 71.7641 33.4677ZM60.3547 33.4677C60.3547 35.9316 61.7623 37.6678 63.9913 37.6678C66.2202 37.6678 67.6279 35.9544 67.6279 33.4677C67.6279 30.9809 66.2431 29.2676 63.9913 29.2676C61.7395 29.2676 60.3319 31.0037 60.3547 33.4677Z" fill="white"/>
<path d="M87.4176 40.7597H83.3361V38.9962C81.844 40.4266 79.9801 41.1681 78.3078 41.1681C75.6386 41.1681 73.4051 39.4775 73.4051 35.6881V26.1837H77.4865V35.1748C77.4865 36.8425 78.3329 37.6821 79.6698 37.6866C80.8448 37.6912 82.2068 37.1642 83.3384 36.1968V26.1837H87.4198V40.7597H87.4176Z" fill="white"/>
<path d="M100.152 40.1691C98.9223 40.7851 97.485 41.1592 96.1344 41.1615C93.6089 41.1684 91.3891 39.8817 91.3891 36.4595V29.3369H88.5875V26.7772L91.2978 26.1794H91.3868V22.2371H95.4683V26.1794H99.39V29.3369H95.4683V35.9302C95.4683 37.3356 96.2554 37.8124 97.3459 37.8101C97.9664 37.8101 98.6691 37.6527 99.3284 37.4451L100.152 40.1714V40.1691Z" fill="white"/>
<path d="M110.893 25.7725C113.579 25.7725 115.881 27.4904 115.881 31.2502V40.7546H111.799V31.7635C111.799 30.0227 110.734 29.2493 109.353 29.2539C108.208 29.2562 106.846 29.7923 105.692 30.7528V40.7546H101.61V20.3472H105.692V27.9535C107.218 26.5185 109.13 25.7702 110.891 25.7702L110.893 25.7725Z" fill="white"/>
<path d="M132.439 40.7568H128.357V39.194C126.9 40.5629 125.23 41.1652 123.662 41.1652C119.96 41.1652 117.366 37.7545 117.366 33.4677C117.366 29.1809 119.96 25.7724 123.662 25.7724C125.232 25.7724 126.902 26.3747 128.357 27.7436V26.1808H132.439V40.7568ZM128.357 35.9909V30.9467C127.208 29.8014 125.718 29.2219 124.566 29.2197C122.661 29.2197 121.506 30.8919 121.506 33.4677C121.506 36.0434 122.62 37.7157 124.566 37.718C125.718 37.718 127.208 37.1362 128.357 35.9909Z" fill="white"/>
<path d="M153.565 25.7724C156.174 25.7724 158.378 27.463 158.371 31.2524V40.7568H154.29V31.7657C154.297 30.0068 153.288 29.2493 151.97 29.2516C150.923 29.2539 149.677 29.7353 148.586 30.5771C148.602 30.7938 148.612 31.0197 148.612 31.2547V40.7591H144.53V31.768C144.535 30.0204 143.542 29.2562 142.258 29.2584C141.19 29.2584 139.922 29.7877 138.852 30.7163V40.7591H134.77V26.1831H138.852V27.9489C140.319 26.5162 142.141 25.7747 143.832 25.7747C145.522 25.7747 147.119 26.5321 147.959 28.1725C149.595 26.6257 151.669 25.7747 153.565 25.7747V25.7724Z" fill="white"/>
<path d="M169.585 25.7725C173.386 25.7588 175.948 29.1832 175.955 33.47C175.948 38.0693 173.147 41.1721 169.542 41.1675C168.013 41.1721 166.35 40.5378 164.94 39.2534V46.5882H160.859V26.1808H164.94V27.7664C166.332 26.4523 167.997 25.7725 169.585 25.7725ZM171.828 33.47C171.837 30.9764 170.708 29.2197 168.768 29.2197C167.594 29.2197 166.124 29.7901 164.943 30.9696V35.8929C166.14 37.0815 167.541 37.7659 168.764 37.7568C170.555 37.7408 171.839 36.226 171.83 33.47H171.828Z" fill="white"/>
<path d="M188.17 40.1691C186.94 40.7851 185.503 41.1592 184.152 41.1615C181.627 41.1684 179.407 39.8817 179.407 36.4595V29.3369H176.605V26.7772L179.315 26.1794H179.404V22.2371H183.486V26.1794H187.408V29.3369H183.486V35.9302C183.486 37.3356 184.273 37.8124 185.363 37.8101C185.984 37.8101 186.687 37.6527 187.346 37.4451L188.17 40.1714V40.1691Z" fill="white"/>
<path d="M204.149 33.4677C204.149 37.7248 201.089 41.1652 196.376 41.1652C191.662 41.1652 188.603 37.7248 188.603 33.4677C188.603 29.2105 191.694 25.7428 196.376 25.7724C201.089 25.7724 204.149 29.2128 204.149 33.4677ZM192.739 33.4677C192.739 35.9316 194.147 37.6678 196.376 37.6678C198.605 37.6678 200.012 35.9544 200.012 33.4677C200.012 30.9809 198.628 29.2676 196.376 29.2676C194.124 29.2676 192.716 31.0037 192.739 33.4677Z" fill="white"/>
<path d="M215.008 25.7724C217.682 25.7724 220 27.4926 220 31.2524V40.7568H215.919V31.7657C215.919 30.0273 214.897 29.2539 213.557 29.2562C212.437 29.2562 211.009 29.7946 209.809 30.7665V40.7568H205.728V26.1808H209.809V27.958C211.367 26.4911 213.3 25.7724 215.006 25.7724H215.008Z" fill="white"/>
<path d="M3.69099 6.51228C3.72521 6.52369 3.75715 6.5351 3.78909 6.54879C3.78681 6.51456 3.78452 6.48034 3.78452 6.44384C3.78452 6.22254 3.83928 6.01493 3.93282 5.83014C3.65448 5.72975 3.33736 5.70694 3.17538 5.70238C3.12975 5.8598 3.05675 6.16551 3.06587 6.46209C3.27348 6.43015 3.48566 6.44612 3.69099 6.51228Z" fill="white"/>
<path d="M4.68591 7.45787C4.77717 7.41452 4.87527 7.38258 4.97794 7.36661V6.96052C4.97794 6.87382 5.04866 6.8031 5.13535 6.8031C5.22205 6.8031 5.29277 6.87382 5.29277 6.96052V7.36889C5.39544 7.38486 5.49354 7.4168 5.58479 7.46015L5.99773 6.89208C5.99773 6.89208 6.10724 6.73466 6.10724 6.44492C6.10724 5.91106 5.67149 5.47531 5.13764 5.47531C4.60378 5.47531 4.16803 5.91106 4.16803 6.44492C4.16803 6.73466 4.27298 6.88751 4.27754 6.89208L4.69048 7.46015L4.68591 7.45787Z" fill="white"/>
<path d="M2.97524 8.71559C3.2513 8.80457 3.42696 8.7521 3.43609 8.74981L4.10911 8.5308C4.10227 8.48517 4.09998 8.43726 4.09998 8.38935C4.09998 8.3346 4.10455 8.28212 4.11139 8.22965L3.71899 8.10189C3.63686 8.07451 3.59123 7.98554 3.6186 7.90341C3.64598 7.82128 3.73496 7.77565 3.81709 7.80302L4.20721 7.93078C4.25284 7.83953 4.31216 7.75511 4.3806 7.68211L3.96766 7.11404C3.96766 7.11404 3.85131 6.96118 3.57526 6.87221C3.47716 6.84027 3.37449 6.8243 3.27411 6.8243C3.12354 6.8243 2.97296 6.8608 2.83379 6.93152C2.60337 7.05016 2.43226 7.24864 2.35241 7.49731C2.18815 8.00607 2.46649 8.55361 2.97524 8.72016V8.71559Z" fill="white"/>
<path d="M6.47723 6.54879C6.50917 6.5351 6.54111 6.52369 6.57533 6.51228C6.78065 6.44612 6.99511 6.43015 7.205 6.46209C7.21412 6.16779 7.13656 5.8598 7.09093 5.70238C6.92895 5.70694 6.61183 5.73204 6.3335 5.83242C6.42703 6.01493 6.47951 6.22254 6.47951 6.44156C6.47951 6.47806 6.47951 6.51228 6.47494 6.5465L6.47723 6.54879Z" fill="white"/>
<path d="M6.0595 7.9298L6.45191 7.80204C6.53404 7.77467 6.62302 7.82029 6.65039 7.90242C6.67777 7.98456 6.63214 8.07353 6.55001 8.10091L6.15532 8.22867C6.16445 8.28114 6.16673 8.33361 6.16673 8.38837C6.16673 8.43628 6.16217 8.48419 6.15761 8.52982L6.83291 8.74883C6.83291 8.74883 7.0177 8.80359 7.29147 8.71461C7.80023 8.55035 8.08084 8.00053 7.9143 7.49177C7.83445 7.24538 7.66334 7.04461 7.43292 6.92598C7.2025 6.80734 6.94013 6.78681 6.69374 6.86666C6.41769 6.95564 6.3059 7.10165 6.30133 7.10849L5.8884 7.67885C5.95684 7.75185 6.01616 7.83626 6.06179 7.92752L6.0595 7.9298Z" fill="white"/>
<path d="M7.40989 9.07459C7.37567 9.086 7.34145 9.09512 7.30951 9.10425C7.33232 9.12934 7.35286 9.15672 7.37339 9.18638C7.50343 9.36433 7.58328 9.56509 7.61294 9.76814C7.89812 9.68601 8.16732 9.51718 8.30193 9.42593C8.24717 9.27307 8.12626 8.98105 7.94375 8.74606C7.79773 8.89207 7.6175 9.00615 7.40989 9.07459Z" fill="white"/>
<path d="M4.77032 10.5478C4.94143 10.3128 4.94599 10.128 4.94599 10.1211V9.40704C4.84561 9.38879 4.75207 9.35685 4.66538 9.31122L4.41898 9.65116C4.38933 9.6945 4.34142 9.71504 4.29122 9.71504C4.25928 9.71504 4.22734 9.70591 4.19997 9.68538C4.12924 9.63519 4.11327 9.53708 4.16575 9.46636L4.41214 9.12643C4.34142 9.0557 4.27982 8.97585 4.23191 8.88916L3.55661 9.10818C3.55661 9.10818 3.37637 9.17206 3.20527 9.40704C2.89043 9.84051 2.98625 10.4474 3.41972 10.7622C3.85319 11.077 4.46005 10.9812 4.77489 10.5478H4.77032Z" fill="white"/>
<path d="M21.6802 11.6068C24.354 11.2966 24.4224 11.3376 24.8148 11.0159V2.87354C24.8148 2.87354 24.1487 3.56253 21.8307 3.88421C19.5128 4.20589 18.4998 4.90628 18.4998 5.10933V12.6745C18.4998 12.6745 18.9196 11.9262 21.6802 11.6068Z" fill="white"/>
<path d="M17.7058 12.6768V5.10933C17.7058 4.90628 16.6929 4.20589 14.3749 3.88421C12.057 3.56253 11.3908 2.87354 11.3908 2.87354V11.0159C11.7832 11.3376 11.8517 11.2966 14.5255 11.6068C17.286 11.9262 17.7058 12.6745 17.7058 12.6745V12.6768Z" fill="white"/>
<path d="M5.13342 9.19124C5.57374 9.19124 5.9342 8.83305 5.9342 8.39046C5.9342 7.94786 5.57602 7.58968 5.13342 7.58968C4.69082 7.58968 4.33264 7.94786 4.33264 8.39046C4.33264 8.83305 4.69082 9.19124 5.13342 9.19124Z" fill="white"/>
<path d="M6.71631 9.10818C6.71631 9.10818 6.71631 9.10818 6.71403 9.10818L6.03872 8.88916C5.99081 8.97585 5.92922 9.05798 5.85849 9.12643L6.10489 9.46636C6.15508 9.53708 6.14139 9.63519 6.07066 9.68538C6.04329 9.70591 6.01135 9.71504 5.97941 9.71504C5.9315 9.71504 5.88359 9.69222 5.85165 9.65116L5.60297 9.31122C5.51628 9.35685 5.42046 9.38879 5.32236 9.40704V10.1211C5.32236 10.1211 5.32692 10.3128 5.49803 10.5478C5.81286 10.9812 6.41972 11.077 6.85319 10.7622C7.28666 10.4474 7.38248 9.84051 7.06765 9.40704C6.89882 9.17434 6.72543 9.11274 6.71631 9.10818Z" fill="white"/>
<path d="M5.19279 10.7702C5.17226 10.7405 5.15173 10.7108 5.13348 10.6835C5.11523 10.7131 5.09698 10.7405 5.07416 10.7702C4.94412 10.9481 4.77986 11.085 4.59506 11.1785C4.76161 11.4227 5.00344 11.628 5.13348 11.7261C5.26124 11.6257 5.50307 11.4204 5.66961 11.1763C5.4871 11.0827 5.32284 10.9458 5.19279 10.7702Z" fill="white"/>
<path d="M2.89506 9.18346C2.91559 9.1538 2.93841 9.12642 2.95894 9.10133C2.927 9.0922 2.89278 9.08307 2.85856 9.07167C2.64867 9.00322 2.46844 8.88915 2.32242 8.74086C2.14219 8.97585 2.02128 9.26787 1.96652 9.42301C2.10113 9.51426 2.37033 9.68081 2.65551 9.76294C2.68745 9.55989 2.7673 9.36141 2.89506 9.18346Z" fill="white"/>
<path d="M31.1254 10.7702C31.1049 10.7405 31.0843 10.7108 31.0661 10.6835C31.0478 10.7131 31.0296 10.7405 31.0068 10.7702C30.8767 10.9481 30.7125 11.085 30.5277 11.1785C30.6942 11.4227 30.9361 11.628 31.0661 11.7261C31.1939 11.6257 31.4357 11.4204 31.6022 11.1763C31.4197 11.0827 31.2555 10.9458 31.1254 10.7702Z" fill="white"/>
<path d="M30.7037 10.5478C30.8748 10.3128 30.8794 10.128 30.8794 10.1211V9.40704C30.779 9.38879 30.6855 9.35685 30.5988 9.31122L30.3524 9.65116C30.3227 9.6945 30.2748 9.71504 30.2246 9.71504C30.1927 9.71504 30.1608 9.70591 30.1334 9.68538C30.0627 9.63519 30.0467 9.53708 30.0992 9.46636L30.3455 9.12643C30.2748 9.0557 30.2132 8.97585 30.1653 8.88916L29.49 9.10818C29.49 9.10818 29.3098 9.17206 29.1387 9.40704C28.8238 9.84051 28.9197 10.4474 29.3531 10.7622C29.7866 11.077 30.3935 10.9812 30.7083 10.5478H30.7037Z" fill="white"/>
<path d="M32.6497 9.10818C32.6497 9.10818 32.6497 9.10818 32.6474 9.10818L31.9721 8.88916C31.9242 8.97585 31.8626 9.05798 31.7919 9.12643L32.0383 9.46636C32.0885 9.53708 32.0748 9.63519 32.0041 9.68538C31.9767 9.70591 31.9448 9.71504 31.9128 9.71504C31.8649 9.71504 31.817 9.69222 31.7851 9.65116L31.5364 9.31122C31.4497 9.35685 31.3539 9.38879 31.2558 9.40704V10.1211C31.2558 10.1211 31.2603 10.3128 31.4314 10.5478C31.7463 10.9812 32.3531 11.077 32.7866 10.7622C33.2201 10.4474 33.3159 9.84051 33.0011 9.40704C32.8322 9.17434 32.6588 9.11274 32.6497 9.10818Z" fill="white"/>
<path d="M33.8475 7.49177C33.7676 7.24538 33.5965 7.04461 33.3661 6.92598C33.1357 6.80734 32.871 6.78681 32.6246 6.86666C32.3486 6.95564 32.2368 7.10165 32.2322 7.10849L31.8193 7.67885C31.8877 7.75185 31.947 7.83627 31.9927 7.92752L32.3851 7.79976C32.4672 7.77239 32.5562 7.81801 32.5836 7.90015C32.6109 7.98228 32.5653 8.07125 32.4832 8.09863L32.0885 8.22639C32.0976 8.27886 32.0999 8.33133 32.0999 8.38609C32.0999 8.434 32.0953 8.48191 32.0908 8.52754L32.7661 8.74655C32.7661 8.74655 32.9509 8.80131 33.2246 8.71233C33.7334 8.54807 34.014 7.99825 33.8475 7.48949V7.49177Z" fill="white"/>
<path d="M33.3407 9.07459C33.3065 9.086 33.2723 9.09512 33.2404 9.10425C33.2632 9.12934 33.2837 9.15672 33.3042 9.18638C33.4343 9.36433 33.5118 9.56509 33.5438 9.76814C33.829 9.68601 34.0982 9.51718 34.2328 9.42593C34.178 9.27307 34.0571 8.98105 33.8746 8.74606C33.7286 8.89207 33.5483 9.00615 33.3407 9.07459Z" fill="white"/>
<path d="M29.3687 8.75203L30.0417 8.53301C30.0349 8.48738 30.0326 8.43947 30.0326 8.39156C30.0326 8.33681 30.0372 8.28434 30.044 8.23186L29.6516 8.1041C29.5695 8.07673 29.5238 7.98775 29.5512 7.90562C29.5786 7.82349 29.6676 7.77786 29.7497 7.80524L30.1398 7.933C30.1855 7.84174 30.2448 7.75733 30.3132 7.68432L29.9003 7.11625C29.9003 7.11625 29.7839 6.96339 29.5079 6.87442C29.4098 6.84248 29.3071 6.82651 29.2067 6.82651C29.0562 6.82651 28.9056 6.86301 28.7664 6.93373C28.536 7.05237 28.3649 7.25085 28.285 7.49953C28.1208 8.00828 28.3991 8.55582 28.9079 8.72237C29.1839 8.81134 29.3596 8.75887 29.3664 8.75659L29.3687 8.75203Z" fill="white"/>
<path d="M35.6016 3.54533C35.2914 3.39932 27.8265 0 18.1008 0C8.37511 0 0.917133 3.39932 0.602296 3.54305L0 3.8191V19.5221L0.0114071 19.5176C0.0821313 21.6302 0.424345 25.5291 1.8297 29.8182C4.57882 38.2047 10.1227 43.9973 17.859 46.5707C17.9617 46.6049 18.0689 46.6209 18.1761 46.6209C18.2833 46.6209 18.3906 46.6049 18.4932 46.5707C26.2318 43.9973 31.7506 38.1956 34.4472 29.7977C35.8161 25.5383 36.1355 21.6644 36.1971 19.5381V19.4902V3.82367L35.6016 3.54533ZM9.74624 4.49897C9.74624 4.44421 9.76906 4.39402 9.81012 4.35752C9.85119 4.3233 9.90594 4.30733 9.95842 4.31417L10.3805 4.37805V3.55218C10.3805 3.49286 10.4079 3.43582 10.458 3.4016C10.506 3.36738 10.5676 3.35826 10.6246 3.37651L10.9873 3.49514V2.87687C10.9873 2.73315 11.0649 2.59854 11.1904 2.52782C11.252 2.49131 11.3204 2.47534 11.3912 2.47534C11.4619 2.47534 11.5326 2.4936 11.5942 2.5301C11.6558 2.5666 11.7151 2.6031 11.7767 2.64417C12.055 2.82212 12.3995 3.04342 13.3463 3.27156C13.6155 3.33772 13.9669 3.39932 14.3365 3.46548C14.9753 3.57955 15.7008 3.70731 16.351 3.9058C17.1586 4.15219 17.7039 4.46246 18.0164 4.85715C18.0734 4.92788 18.1031 5.01457 18.1031 5.10354C18.1031 5.01457 18.135 4.92788 18.1898 4.85715C18.5046 4.46246 19.0476 4.15219 19.8552 3.9058C20.5077 3.70731 21.2309 3.57955 21.8697 3.46548C22.2393 3.39932 22.5884 3.33772 22.8599 3.27156C23.8044 3.04342 24.1512 2.82212 24.4295 2.64417C24.4911 2.60539 24.5504 2.5666 24.612 2.5301C24.6736 2.4936 24.7443 2.47534 24.8151 2.47534C24.8858 2.47534 24.9542 2.4936 25.0158 2.52782C25.1413 2.59854 25.2189 2.73315 25.2189 2.87687V3.49514L25.5816 3.37651C25.6386 3.35826 25.7002 3.36738 25.7482 3.4016C25.7961 3.43582 25.8257 3.49286 25.8257 3.55218V4.37805L26.2478 4.31417C26.3003 4.30733 26.355 4.32102 26.3961 4.35752C26.4371 4.39174 26.46 4.44421 26.46 4.49897V11.2976C26.46 11.9433 25.974 12.217 24.7626 12.1531C20.6469 12.0277 19.1046 13.0908 19.1046 13.0908C19.0955 13.4718 18.7145 13.7091 18.1031 13.7091C17.4917 13.7091 17.1107 13.4718 17.1016 13.0908C17.1016 13.0908 15.557 12.0277 11.4436 12.1531C10.2322 12.217 9.74624 11.9433 9.74624 11.2976V4.49897ZM17.786 17.7928C18.0369 17.9023 18.7259 18.3495 18.9084 18.824C18.9723 18.9883 18.8514 19.2278 18.7716 19.4058C18.532 19.9374 18.3381 20.3503 18.3107 20.4119C18.2537 20.5237 17.8932 21.272 17.8544 22.2051C17.827 22.8439 17.9457 23.6492 18.5001 24.3839C18.4225 24.3747 18.3814 24.3702 18.3814 24.3702C17.843 24.3245 17.2681 24.3975 17.0354 24.4318C16.7913 24.4455 16.6612 24.3359 16.554 24.1831C16.2232 23.7108 15.6848 23.2819 14.8361 23.0287C13.8117 22.7207 12.4611 22.358 11.3387 22.0659C11.3387 22.0659 11.3387 22.0659 11.3364 22.0659C9.18958 21.4614 9.7645 20.1974 9.24889 20.2476C8.73329 20.2978 9.0025 21.1579 9.1987 21.5115C8.32948 21.3199 7.86407 21.0051 7.86635 21.0073C6.28304 19.7389 6.35605 18.1829 6.70967 17.0742C9.69377 16.2711 13.7182 15.5 18.1761 15.5C18.2286 15.5 18.2788 15.5 18.3312 15.5C18.8309 15.9175 19.8689 16.8848 19.5107 17.7038C19.4856 17.7609 19.4628 17.8202 19.4377 17.8795C18.7738 17.4255 18.1168 17.1654 18.0141 17.1221C17.7358 17.0035 17.4803 16.9898 17.3913 17.2088C17.3023 17.4255 17.5099 17.6696 17.786 17.7905V17.7928ZM19.2872 20.907L19.2986 20.8864C19.3305 20.8203 20.0697 19.2438 20.5237 18.1213C20.9412 17.0924 20.1199 16.0772 19.5518 15.5296C21.4203 15.5958 23.1884 15.7875 24.8173 16.0498C25.0546 16.2506 25.3101 16.4445 25.3489 16.6521C23.8523 16.5198 23.0333 16.8529 23.1268 17.3822C23.1724 17.5966 23.501 17.6696 23.793 17.5966C24.0508 17.551 25.1778 17.4392 26.0128 18.0757C26.3938 18.3655 26.6197 18.8423 26.6858 19.4879C26.6858 19.5039 26.6881 19.5199 26.6904 19.5358C26.6949 19.5951 26.6995 19.6545 26.7018 19.7161C26.7383 20.7473 26.2752 21.6484 25.3192 22.399C22.2393 24.8173 20.4324 24.4842 20.1746 24.4181C19.3191 23.9116 18.9153 23.2158 18.9449 22.2872C18.97 21.5321 19.2849 20.9138 19.2872 20.9092V20.907ZM1.68597 9.61164L1.60156 9.54548L1.63122 9.44281C1.63806 9.41772 1.79776 8.87702 2.12401 8.48918C1.9278 8.16521 1.86849 7.7614 1.99396 7.37584C2.10575 7.03363 2.34302 6.75529 2.6647 6.59103C2.69436 6.57506 2.7263 6.56137 2.75824 6.54769C2.71946 6.04349 2.90653 5.5142 2.91566 5.4891L2.95216 5.38872L3.05939 5.38416C3.08677 5.38416 3.65028 5.36819 4.11797 5.55983C4.36436 5.27465 4.72939 5.09214 5.13777 5.09214C5.54614 5.09214 5.91117 5.27465 6.15985 5.56211C6.62754 5.37047 7.18877 5.38188 7.21386 5.38416H7.32109L7.35759 5.48682C7.36672 5.51192 7.55608 6.04349 7.51957 6.54769C7.54923 6.56137 7.57889 6.57278 7.60855 6.58875C7.93023 6.75301 8.1675 7.03135 8.27929 7.37356C8.40477 7.7614 8.34545 8.1675 8.14697 8.49146C8.47321 8.87702 8.63519 9.41543 8.64204 9.44053L8.67169 9.54319L8.58728 9.60936C8.56675 9.62533 8.11959 9.96982 7.6268 10.0907C7.59486 10.4672 7.4055 10.8276 7.07698 11.0672C6.83743 11.2406 6.56138 11.325 6.28761 11.325C6.18266 11.325 6.07771 11.3136 5.97505 11.2885C5.7104 11.7197 5.24728 12.0368 5.22674 12.0528L5.13777 12.1121L5.04879 12.0528C5.02598 12.0391 4.56057 11.7197 4.29592 11.2885C4.19554 11.3113 4.09059 11.325 3.98793 11.325C3.71416 11.325 3.43583 11.2406 3.19856 11.0672C2.86775 10.8276 2.67839 10.4649 2.64873 10.0862C2.15823 9.96754 1.71107 9.62533 1.69054 9.61164H1.68597ZM5.7606 19.9077C4.9986 19.4218 4.41456 18.6871 4.09288 17.8658C4.57426 17.7038 5.11495 17.535 5.70812 17.3594C5.70812 17.3594 5.70812 17.3594 5.70812 17.3616C5.55983 18.0392 5.48226 19.0202 5.7606 19.9054V19.9077ZM32.4943 29.2205C31.381 32.6586 29.7657 35.6381 27.6919 38.0724C25.1846 41.0177 21.9838 43.1782 18.1761 44.5037C14.3661 43.1782 11.1562 41.0177 8.63291 38.0747C6.54769 35.6427 4.91419 32.6654 3.78032 29.2296C2.22667 24.523 2.04187 20.2111 2.03047 18.6187C2.32477 18.5001 2.7263 18.3449 3.21909 18.167C3.5499 19.1708 4.29364 20.0788 5.5028 20.9321C7.09979 22.0568 8.84052 22.5633 8.91352 22.5838C8.91352 22.5838 12.4383 23.6013 14.5258 24.2264C15.8559 24.6508 15.7943 25.6364 15.5821 26.3139C15.5662 26.355 15.5525 26.3961 15.5365 26.4371C15.5091 26.5193 15.4772 26.6037 15.4407 26.6881C15.4407 26.6927 15.4384 26.6949 15.4361 26.6995C15.3996 26.7816 15.3608 26.866 15.3152 26.9505C15.2582 26.8957 15.1213 26.0995 13.6589 25.3786C12.1965 24.6576 9.98351 24.9862 9.73484 25.1071C9.60936 25.1687 9.60708 25.2325 9.71659 25.3147C9.78047 25.3626 9.85119 25.4037 9.90366 25.463C10.2527 25.8143 10.198 26.6333 11.2246 27.6965C11.5394 27.9794 11.8862 28.2166 12.2627 28.4083C13.7182 29.0881 14.3912 28.7779 14.6604 28.7482C14.6422 28.7984 14.6308 28.8509 14.608 28.8988C12.3744 32.8274 11.4938 36.2062 11.3661 39.026L11.8155 39.4047C12.6802 40.1462 13.611 40.8147 14.6011 41.4056L15.4247 41.8732C16.3008 42.3455 17.2225 42.7584 18.1807 43.1143C20.8134 42.1402 23.1359 40.7257 25.0957 38.9006C25.0957 38.9006 25.3512 38.6564 25.504 38.4808C25.2211 38.4534 24.936 38.4283 24.6417 38.4146C20.8636 38.2503 19.7822 36.7492 20.4416 34.4769C20.4621 34.4061 20.5693 34.1757 20.4233 34.0457C20.3047 33.9407 20.1062 34.0252 20.0286 34.0639C16.1411 35.9096 15.0483 41.3896 15.0483 41.3896C15.0483 41.3896 14.8931 37.0115 17.9434 34.0868C20.9937 31.162 23.5625 31.7529 23.6766 31.7529C24.9154 32.0472 25.1801 31.3171 25.2462 30.7308C25.2462 30.6486 25.285 30.5711 25.3535 30.5095C25.9238 30.1102 26.5603 28.5246 25.917 27.9543C25.6021 27.66 24.3337 27.3429 24.0234 27.2402C23.7451 27.1467 23.4667 27.0554 23.2066 26.9117C23.0469 26.8227 22.9078 26.7246 22.8325 26.5444C22.6066 25.8964 21.9952 25.5405 21.8515 25.4424C23.1359 25.1527 24.5299 24.4249 25.9991 23.2705C26.4463 22.9192 26.8113 22.5336 27.0942 22.1207C27.3725 21.8058 27.3908 21.4431 27.8904 21.2309C28.9376 20.7313 28.9056 20.1838 28.7254 20.0012C28.5429 19.8187 27.8722 20.0788 27.7923 20.1564C27.8151 19.8529 27.806 19.5427 27.7604 19.2233C27.7604 19.2119 27.7558 19.1982 27.7535 19.1868C27.749 19.164 27.7467 19.1389 27.7421 19.116C27.7353 19.0727 27.7284 19.0294 27.7193 18.986C27.7193 18.9769 27.7147 18.9678 27.7147 18.9586C27.5026 17.8841 26.9026 16.9784 26.2866 16.3213C30.1353 17.0719 33.0031 18.1442 34.1735 18.6233C34.1735 20.2317 34.0138 24.5321 32.4943 29.2273V29.2205ZM34.5179 9.61164C34.4974 9.62761 34.0503 9.9721 33.5575 10.093C33.5255 10.4695 33.3362 10.8299 33.0076 11.0695C32.7681 11.2429 32.492 11.3273 32.2183 11.3273C32.1133 11.3273 32.0084 11.3159 31.9057 11.2908C31.6411 11.722 31.1779 12.0391 31.1574 12.055L31.0684 12.1144L30.9795 12.055C30.9566 12.0414 30.4912 11.722 30.2266 11.2908C30.1262 11.3136 30.0213 11.3273 29.9186 11.3273C29.6448 11.3273 29.3665 11.2429 29.1292 11.0695C28.7984 10.8299 28.6113 10.4672 28.5794 10.0885C28.0889 9.96982 27.6417 9.62761 27.6212 9.61392L27.5368 9.54776L27.5665 9.44509C27.5733 9.42 27.733 8.8793 28.0592 8.49146C27.863 8.1675 27.8037 7.76368 27.9292 7.37812C28.041 7.03591 28.2783 6.75758 28.5999 6.59331C28.6296 6.57734 28.6615 6.56366 28.6935 6.54997C28.6547 6.04577 28.8418 5.51648 28.8509 5.49139L28.8874 5.391L28.9946 5.38644C29.022 5.38644 29.5855 5.37047 30.0532 5.56211C30.2996 5.27693 30.6646 5.09442 31.073 5.09442C31.4814 5.09442 31.8464 5.27693 32.0951 5.56439C32.5628 5.37275 33.124 5.38416 33.1491 5.38644H33.2563L33.2928 5.4891C33.3019 5.5142 33.4913 6.04577 33.4548 6.54997C33.4845 6.56366 33.5141 6.57506 33.5438 6.59103C33.8655 6.75529 34.1027 7.03363 34.2145 7.37584C34.34 7.76368 34.2807 8.16978 34.0822 8.49374C34.4107 8.8793 34.5704 9.41772 34.5773 9.44281L34.6069 9.54548L34.5225 9.61164H34.5179Z" fill="white"/>
<path d="M32.4101 6.54879C32.4421 6.5351 32.474 6.52369 32.5082 6.51228C32.7136 6.44612 32.928 6.43015 33.1379 6.46209C33.147 6.16779 33.0695 5.8598 33.0238 5.70238C32.8618 5.70694 32.5447 5.73204 32.2687 5.83242C32.3622 6.01493 32.4147 6.22254 32.4147 6.44156C32.4147 6.47806 32.4147 6.51228 32.4101 6.5465V6.54879Z" fill="white"/>
<path d="M30.6168 7.45787C30.708 7.41452 30.8061 7.38258 30.9088 7.36661V6.96052C30.9088 6.87382 30.9795 6.8031 31.0662 6.8031C31.1529 6.8031 31.2237 6.87382 31.2237 6.96052V7.36889C31.3263 7.38486 31.4244 7.4168 31.5157 7.46015L31.9286 6.89208C31.9286 6.89208 32.0381 6.73466 32.0381 6.44492C32.0381 5.91106 31.6024 5.47531 31.0685 5.47531C30.5347 5.47531 30.0989 5.91106 30.0989 6.44492C30.0989 6.73466 30.2039 6.88751 30.2084 6.89208L30.6214 7.46015L30.6168 7.45787Z" fill="white"/>
<path d="M28.2551 8.74345C28.0748 8.97844 27.9539 9.27046 27.8992 9.4256C28.0338 9.51686 28.303 9.6834 28.5882 9.76553C28.6201 9.56249 28.6999 9.364 28.8277 9.18605C28.8482 9.15639 28.8711 9.12901 28.8916 9.10392C28.8596 9.09479 28.8254 9.08567 28.7912 9.07426C28.5813 9.00582 28.3988 8.89175 28.2551 8.74345Z" fill="white"/>
<path d="M30.2653 8.39046C30.2653 8.83077 30.6235 9.19124 31.0661 9.19124C31.5087 9.19124 31.8668 8.83305 31.8668 8.39046C31.8668 7.94786 31.5087 7.58968 31.0661 7.58968C30.6235 7.58968 30.2653 7.94786 30.2653 8.39046Z" fill="white"/>
<path d="M29.6244 6.51228C29.6586 6.52369 29.6929 6.5351 29.7225 6.54879C29.7202 6.51456 29.718 6.48034 29.718 6.44384C29.718 6.22254 29.7704 6.01493 29.8663 5.83014C29.5879 5.72975 29.2708 5.70694 29.1088 5.70238C29.0632 5.8598 28.9902 6.16551 28.9993 6.46209C29.2069 6.43015 29.4191 6.44612 29.6244 6.51228Z" fill="white"/>
</svg>
