<svg width="350" height="57" viewBox="0 0 350 57" fill="none" xmlns="http://www.w3.org/2000/svg">
<path d="M207.384 12.5005C206.485 12.5131 205.618 12.3164 204.781 11.9146C203.944 11.5129 203.241 10.9563 202.68 10.2448C201.86 9.22787 201.446 7.97238 201.446 6.48253C201.446 5.61623 201.609 4.79598 201.931 4.01757C202.258 3.26009 202.693 2.61142 203.245 2.07156C203.806 1.54006 204.451 1.12575 205.175 0.824431C205.92 0.510557 206.685 0.355713 207.464 0.355713C208.707 0.355713 209.795 0.652847 210.724 1.24711C211.155 1.54843 211.515 1.85812 211.795 2.17199C212.356 2.8123 212.737 3.49863 212.929 4.23101L211.096 4.86294C211 4.43188 210.803 4.00502 210.51 3.58233C210.305 3.28939 210.079 3.05084 209.828 2.8667C209.221 2.36032 208.426 2.10504 207.443 2.10504C206.384 2.10504 205.447 2.49424 204.635 3.27264C203.802 4.08453 203.388 5.13496 203.388 6.41975C203.388 7.70454 203.798 8.78426 204.622 9.5836C205.422 10.362 206.359 10.7512 207.43 10.7512C208.33 10.7512 209.092 10.5085 209.72 10.023C210.012 9.78448 210.251 9.54593 210.435 9.30739C210.77 8.86378 211.004 8.4118 211.134 7.94308L212.967 8.57502C212.695 9.55012 212.155 10.3829 211.343 11.0734C210.64 11.6677 209.858 12.0778 208.991 12.308C208.472 12.4378 207.937 12.5047 207.384 12.5047V12.5005Z" fill="white"/>
<path d="M214.452 2.50683C214.214 2.26828 214.097 1.99208 214.097 1.6782C214.097 1.36433 214.214 1.07138 214.452 0.832835C214.678 0.594291 214.955 0.477112 215.281 0.477112C215.607 0.477112 215.896 0.594291 216.126 0.832835C216.352 1.05882 216.47 1.3434 216.47 1.6782C216.47 2.013 216.357 2.27665 216.126 2.50683C215.888 2.74537 215.607 2.86255 215.281 2.86255C214.955 2.86255 214.691 2.74537 214.452 2.50683ZM214.39 12.3541V4.28963H216.189V12.3541H214.39Z" fill="white"/>
<path d="M222.743 4.28961V5.91338H220.701V9.75938C220.701 10.1151 220.797 10.3788 220.994 10.5462C221.19 10.7136 221.5 10.7973 221.935 10.7973C222.153 10.7973 222.396 10.7763 222.668 10.7303V12.2704C222.266 12.3792 221.839 12.4336 221.387 12.4336C220.554 12.4336 219.931 12.2369 219.521 11.8477C219.111 11.4585 218.905 10.7931 218.905 9.85145V5.90919H217.349V4.28542H218.905V1.78699H220.705V4.28542H222.747L222.743 4.28961Z" fill="white"/>
<path d="M224.183 2.50683C223.944 2.26828 223.827 1.99208 223.827 1.6782C223.827 1.36433 223.944 1.07138 224.183 0.832835C224.409 0.594291 224.685 0.477112 225.011 0.477112C225.338 0.477112 225.627 0.594291 225.857 0.832835C226.083 1.05882 226.2 1.3434 226.2 1.6782C226.2 2.013 226.087 2.27665 225.857 2.50683C225.618 2.74537 225.338 2.86255 225.011 2.86255C224.685 2.86255 224.421 2.74537 224.183 2.50683ZM224.12 12.3541V4.28963H225.92V12.3541H224.12Z" fill="white"/>
<path d="M231.737 5.86316H227.468V4.28961H233.988V5.71669L229.544 10.7931H234.005V12.3499H227.355V10.8558L231.737 5.85898V5.86316Z" fill="white"/>
<path d="M242.773 8.85125H236.642C236.654 9.43715 236.901 9.93516 237.387 10.3537C237.872 10.7722 238.412 10.973 239.01 10.9605C240.136 10.9605 240.848 10.5043 241.153 9.59618L242.664 10.0649C242.522 10.5504 242.266 10.9856 241.894 11.3622C241.521 11.7389 241.086 12.0276 240.588 12.2202C240.069 12.4043 239.55 12.4964 239.031 12.4964C237.864 12.5173 236.863 12.1197 236.031 11.2953C235.198 10.475 234.792 9.479 234.813 8.31139C234.813 7.5539 234.984 6.85501 235.332 6.21889C235.687 5.55767 236.177 5.05129 236.792 4.69556C237.42 4.31891 238.111 4.1264 238.868 4.1264C240.103 4.1264 241.065 4.51142 241.756 5.27727C242.459 6.04731 242.81 7.05171 242.81 8.29465C242.81 8.4453 242.798 8.62944 242.777 8.84706L242.773 8.85125ZM238.881 5.67066C238.307 5.67066 237.83 5.83806 237.454 6.17286C237.052 6.4951 236.817 6.93453 236.738 7.48694H240.973C240.94 6.94708 240.73 6.50347 240.341 6.15612C239.931 5.82969 239.441 5.67066 238.881 5.67066Z" fill="white"/>
<path d="M249.862 12.354V7.84263C249.862 7.21489 249.711 6.72524 249.41 6.36533C249.109 6.00961 248.665 5.82966 248.079 5.82966C247.493 5.82966 247.05 6.0138 246.715 6.38207C246.38 6.75035 246.213 7.24 246.213 7.85937V12.354H244.413V4.28958H246.167V5.37768C246.405 5.06381 246.69 4.80434 247.025 4.59927C247.359 4.40258 247.648 4.27284 247.882 4.21007C248.154 4.15566 248.401 4.13055 248.627 4.13055C249.623 4.13055 250.372 4.43187 250.883 5.0387C251.394 5.62459 251.645 6.40718 251.645 7.39065V12.354H249.862Z" fill="white"/>
<path d="M258.462 6.52856V8.36159H253.562V6.52856H258.462Z" fill="white"/>
<path d="M266.258 12.5005C265.359 12.5131 264.492 12.3164 263.655 11.9146C262.818 11.5129 262.115 10.9563 261.554 10.2448C260.734 9.22787 260.32 7.97238 260.32 6.48253C260.32 5.61623 260.483 4.79598 260.805 4.01757C261.132 3.26009 261.567 2.61142 262.119 2.07156C262.68 1.54006 263.325 1.12575 264.049 0.824431C264.794 0.510557 265.559 0.355713 266.338 0.355713C267.581 0.355713 268.669 0.652847 269.598 1.24711C270.029 1.54843 270.389 1.85812 270.669 2.17199C271.23 2.8123 271.611 3.49863 271.803 4.23101L269.97 4.86294C269.874 4.43188 269.677 4.00502 269.384 3.58233C269.179 3.28939 268.953 3.05084 268.702 2.8667C268.096 2.36032 267.3 2.10504 266.317 2.10504C265.258 2.10504 264.321 2.49424 263.509 3.27264C262.676 4.08453 262.262 5.13496 262.262 6.41975C262.262 7.70454 262.672 8.78426 263.496 9.5836C264.296 10.362 265.233 10.7512 266.304 10.7512C267.204 10.7512 267.966 10.5085 268.594 10.023C268.886 9.78448 269.125 9.54593 269.309 9.30739C269.644 8.86378 269.878 8.4118 270.008 7.94308L271.841 8.57502C271.569 9.55012 271.029 10.3829 270.217 11.0734C269.514 11.6677 268.732 12.0778 267.865 12.308C267.346 12.4378 266.811 12.5047 266.258 12.5047V12.5005Z" fill="white"/>
<path d="M280.822 8.85125H274.691C274.704 9.43715 274.951 9.93516 275.436 10.3537C275.922 10.7722 276.462 10.973 277.06 10.9605C278.186 10.9605 278.897 10.5043 279.203 9.59618L280.714 10.0649C280.571 10.5504 280.316 10.9856 279.944 11.3622C279.571 11.7389 279.136 12.0276 278.638 12.2202C278.119 12.4043 277.6 12.4964 277.081 12.4964C275.913 12.5173 274.913 12.1197 274.08 11.2953C273.248 10.475 272.842 9.479 272.863 8.31139C272.863 7.5539 273.034 6.85501 273.382 6.21889C273.737 5.55767 274.227 5.05129 274.842 4.69556C275.47 4.31891 276.16 4.1264 276.918 4.1264C278.152 4.1264 279.115 4.51142 279.805 5.27727C280.509 6.04731 280.86 7.05171 280.86 8.29465C280.86 8.4453 280.848 8.62944 280.827 8.84706L280.822 8.85125ZM276.93 5.67066C276.357 5.67066 275.88 5.83806 275.503 6.17286C275.102 6.4951 274.867 6.93453 274.788 7.48694H279.023C278.989 6.94708 278.78 6.50347 278.391 6.15612C277.981 5.82969 277.491 5.67066 276.93 5.67066Z" fill="white"/>
<path d="M287.912 12.354V7.84263C287.912 7.21489 287.761 6.72524 287.46 6.36533C287.158 6.00961 286.715 5.82966 286.129 5.82966C285.543 5.82966 285.099 6.0138 284.765 6.38207C284.43 6.75035 284.262 7.24 284.262 7.85937V12.354H282.463V4.28958H284.216V5.37768C284.455 5.06381 284.74 4.80434 285.074 4.59927C285.409 4.40258 285.698 4.27284 285.932 4.21007C286.204 4.15566 286.451 4.13055 286.677 4.13055C287.673 4.13055 288.422 4.43187 288.933 5.0387C289.443 5.62459 289.695 6.40718 289.695 7.39065V12.354H287.912Z" fill="white"/>
<path d="M296.139 4.28961V5.91338H294.097V9.75938C294.097 10.1151 294.193 10.3788 294.39 10.5462C294.586 10.7136 294.896 10.7973 295.331 10.7973C295.549 10.7973 295.792 10.7763 296.064 10.7303V12.2704C295.662 12.3792 295.235 12.4336 294.783 12.4336C293.95 12.4336 293.327 12.2369 292.917 11.8477C292.507 11.4585 292.301 10.7931 292.301 9.85145V5.90919H290.745V4.28542H292.301V1.78699H294.101V4.28542H296.143L296.139 4.28961Z" fill="white"/>
<path d="M302.019 4.26032V6.11008C301.877 6.0766 301.71 6.05986 301.517 6.05986C300.835 6.05986 300.312 6.24819 299.952 6.62902C299.592 7.00985 299.408 7.54972 299.408 8.25279V12.3583H297.608V4.28962H299.379V5.53674C299.605 5.11406 299.919 4.79181 300.312 4.56164C300.705 4.33565 301.132 4.22266 301.584 4.22266C301.701 4.22266 301.848 4.23521 302.024 4.25614L302.019 4.26032Z" fill="white"/>
<path d="M303.229 2.50683C302.99 2.26828 302.873 1.99208 302.873 1.6782C302.873 1.36433 302.99 1.07138 303.229 0.832835C303.455 0.594291 303.731 0.477112 304.057 0.477112C304.384 0.477112 304.673 0.594291 304.903 0.832835C305.129 1.05882 305.246 1.3434 305.246 1.6782C305.246 2.013 305.133 2.27665 304.903 2.50683C304.664 2.74537 304.384 2.86255 304.057 2.86255C303.731 2.86255 303.467 2.74537 303.229 2.50683ZM303.166 12.3541V4.28963H304.966V12.3541H303.166Z" fill="white"/>
<path d="M310.711 12.5005C309.544 12.5214 308.543 12.1197 307.719 11.2911C306.89 10.4624 306.489 9.46641 306.51 8.2988C306.51 7.54131 306.694 6.84242 307.062 6.20631C307.418 5.57019 307.928 5.05962 308.585 4.68297C309.221 4.31469 309.937 4.13055 310.728 4.13055C311.691 4.13055 312.507 4.38584 313.176 4.89222C313.846 5.39023 314.273 6.00124 314.457 6.72524L312.833 7.26092C312.737 6.91357 312.532 6.58295 312.218 6.27326C311.85 5.92591 311.352 5.75433 310.724 5.75433C310.063 5.75433 309.502 5.98869 309.037 6.45322C308.581 6.93031 308.355 7.54131 308.355 8.28624C308.355 9.03117 308.577 9.63799 309.021 10.136C309.477 10.6215 310.05 10.8642 310.741 10.8642C311.77 10.8642 312.477 10.3494 312.867 9.32412L314.507 9.85979C314.323 10.521 313.921 11.1069 313.306 11.6259C312.636 12.2118 311.77 12.5005 310.711 12.5005Z" fill="white"/>
<path d="M203.714 29.8598L202.609 32.6344H200.709L205.526 20.8077H207.715L212.502 32.6344H210.573L209.485 29.8598H203.71H203.714ZM204.362 28.2067H208.857L206.601 22.5947L204.362 28.2067Z" fill="white"/>
<path d="M217.809 24.5365V26.3863C217.667 26.3528 217.499 26.3361 217.307 26.3361C216.625 26.3361 216.101 26.5244 215.742 26.9052C215.382 27.2861 215.197 27.8259 215.197 28.529V32.6345H213.398V24.57H215.168V25.8171C215.394 25.3945 215.708 25.0722 216.101 24.842C216.495 24.616 216.922 24.5031 217.374 24.5031C217.491 24.5031 217.637 24.5156 217.813 24.5365H217.809Z" fill="white"/>
<path d="M223.789 24.57V26.1938H221.747V30.0398C221.747 30.3955 221.843 30.6592 222.04 30.8266C222.237 30.994 222.547 31.0777 222.982 31.0777C223.199 31.0777 223.442 31.0567 223.714 31.0149V32.555C223.312 32.6638 222.886 32.7182 222.434 32.7182C221.601 32.7182 220.977 32.5215 220.567 32.1323C220.157 31.7431 219.952 31.0777 219.952 30.1361V26.1938H218.395V24.57H219.952V22.0716H221.751V24.57H223.794H223.789Z" fill="white"/>
<path d="M225.066 22.7872C224.827 22.5487 224.71 22.2725 224.71 21.9586C224.71 21.6447 224.827 21.3518 225.066 21.1132C225.292 20.8747 225.568 20.7575 225.894 20.7575C226.221 20.7575 226.509 20.8747 226.74 21.1132C226.966 21.3392 227.083 21.6238 227.083 21.9586C227.083 22.2934 226.97 22.5571 226.74 22.7872C226.501 23.0258 226.221 23.1429 225.894 23.1429C225.568 23.1429 225.304 23.0258 225.066 22.7872ZM225.003 32.6345V24.57H226.802V32.6345H225.003Z" fill="white"/>
<path d="M234.858 26.1603H231.255V32.6345H229.456V26.1603H227.916V24.57H229.456V23.6284C229.456 22.4483 229.753 21.5903 230.347 21.0505C230.908 20.5525 231.607 20.3055 232.439 20.3055C232.896 20.3055 233.23 20.3474 233.444 20.4353V21.9586C233.272 21.9168 233.055 21.8917 232.795 21.8917C232.481 21.8917 232.167 21.9837 231.854 22.1679C231.452 22.4273 231.255 22.9086 231.255 23.6117V24.57H236.658V32.6345H234.858V26.1603ZM234.565 21.9586C234.565 21.6322 234.683 21.3518 234.921 21.1132C235.147 20.8747 235.423 20.7575 235.75 20.7575C236.076 20.7575 236.357 20.8747 236.595 21.1132C236.821 21.3392 236.934 21.6238 236.934 21.9586C236.934 22.2934 236.821 22.5571 236.595 22.7872C236.357 23.0258 236.076 23.143 235.75 23.143C235.423 23.143 235.16 23.0258 234.921 22.7872C234.683 22.5487 234.565 22.2725 234.565 21.9586Z" fill="white"/>
<path d="M242.287 32.781C241.119 32.8019 240.119 32.4001 239.295 31.5715C238.466 30.7429 238.064 29.7469 238.085 28.5793C238.085 27.8218 238.269 27.1229 238.638 26.4868C238.993 25.8506 239.504 25.3401 240.161 24.9634C240.797 24.5951 241.513 24.411 242.304 24.411C243.266 24.411 244.082 24.6663 244.752 25.1727C245.422 25.6707 245.848 26.2817 246.033 27.0057L244.409 27.5414C244.312 27.194 244.107 26.8634 243.794 26.5537C243.425 26.2064 242.927 26.0348 242.3 26.0348C241.638 26.0348 241.078 26.2691 240.613 26.7337C240.157 27.2108 239.931 27.8218 239.931 28.5667C239.931 29.3116 240.153 29.9184 240.596 30.4165C241.052 30.9019 241.626 31.1488 242.316 31.1488C243.346 31.1488 244.053 30.6341 244.442 29.6088L246.083 30.1444C245.899 30.8057 245.497 31.3916 244.882 31.9105C244.212 32.4964 243.346 32.7852 242.287 32.7852V32.781Z" fill="white"/>
<path d="M247.426 22.7872C247.187 22.5487 247.07 22.2725 247.07 21.9586C247.07 21.6447 247.187 21.3518 247.426 21.1132C247.652 20.8747 247.928 20.7575 248.255 20.7575C248.581 20.7575 248.87 20.8747 249.1 21.1132C249.326 21.3392 249.443 21.6238 249.443 21.9586C249.443 22.2934 249.33 22.5571 249.1 22.7872C248.861 23.0258 248.581 23.1429 248.255 23.1429C247.928 23.1429 247.665 23.0258 247.426 22.7872ZM247.363 32.6345V24.57H249.163V32.6345H247.363Z" fill="white"/>
<path d="M257.537 32.6345H255.783C255.729 32.3876 255.704 32.0193 255.704 31.5297C255.432 31.9733 255.089 32.2913 254.666 32.488C254.235 32.6847 253.791 32.781 253.335 32.781C252.544 32.781 251.895 32.555 251.389 32.0988C250.879 31.6552 250.627 31.0861 250.627 30.3955V30.316C250.64 29.2907 251.159 28.5751 252.184 28.1733C252.737 27.9557 253.331 27.8511 253.971 27.8511H254.976C255.474 27.8511 255.721 27.6251 255.721 27.1689C255.721 26.8216 255.587 26.5328 255.315 26.2943C255.022 26.0557 254.628 25.9385 254.13 25.9385C253.632 25.9385 253.26 26.0599 252.946 26.3026C252.632 26.5453 252.444 26.8718 252.377 27.2861L250.736 26.9136C250.791 26.537 250.975 26.131 251.289 25.6958C251.623 25.2647 252.046 24.9383 252.553 24.7207C252.996 24.5156 253.544 24.411 254.193 24.411C255.708 24.411 256.712 24.9634 257.21 26.0641C257.395 26.4658 257.487 26.9387 257.487 27.4912V31.3372C257.487 31.877 257.503 32.3123 257.537 32.6345ZM255.704 29.3744V29.1149H253.967C253.59 29.1149 253.239 29.2112 252.912 29.4079C252.586 29.6129 252.427 29.8892 252.427 30.2365C252.427 30.5839 252.544 30.8391 252.783 31.04C253.021 31.2409 253.327 31.3413 253.708 31.3413C254.323 31.3413 254.812 31.1614 255.168 30.8057C255.524 30.4499 255.704 29.9728 255.704 29.3786V29.3744Z" fill="white"/>
<path d="M261.136 20.3348V32.6345H259.336V20.3348H261.136Z" fill="white"/>
<path d="M269.037 20.8077V32.6344H267.188V20.8077H269.037Z" fill="white"/>
<path d="M276.7 32.6345V28.1231C276.7 27.4953 276.549 27.0057 276.248 26.6458C275.947 26.2901 275.503 26.1101 274.917 26.1101C274.331 26.1101 273.888 26.2943 273.553 26.6625C273.218 27.0308 273.051 27.5205 273.051 28.1398V32.6345H271.251V24.57H273.004V25.6581C273.243 25.3443 273.528 25.0848 273.862 24.8797C274.197 24.683 274.486 24.5533 274.72 24.4905C274.992 24.4361 275.239 24.411 275.465 24.411C276.461 24.411 277.21 24.7123 277.721 25.3192C278.232 25.905 278.483 26.6876 278.483 27.6711V32.6345H276.7Z" fill="white"/>
<path d="M284.765 24.57V26.1938H282.722V30.0398C282.722 30.3955 282.819 30.6592 283.015 30.8266C283.212 30.994 283.522 31.0777 283.957 31.0777C284.174 31.0777 284.417 31.0567 284.689 31.0149V32.555C284.287 32.6638 283.861 32.7182 283.409 32.7182C282.576 32.7182 281.952 32.5215 281.542 32.1323C281.132 31.7431 280.927 31.0777 280.927 30.1361V26.1938H279.37V24.57H280.927V22.0716H282.726V24.57H284.769H284.765Z" fill="white"/>
<path d="M293.348 29.1316H287.217C287.229 29.7175 287.476 30.2156 287.962 30.6341C288.447 31.0525 288.987 31.2534 289.586 31.2409C290.711 31.2409 291.423 30.7847 291.728 29.8766L293.239 30.3453C293.097 30.8307 292.841 31.266 292.469 31.6426C292.096 32.0193 291.661 32.308 291.163 32.5006C290.644 32.6847 290.125 32.7768 289.606 32.7768C288.439 32.7977 287.439 32.4001 286.606 31.5757C285.773 30.7554 285.367 29.7594 285.388 28.5918C285.388 27.8343 285.56 27.1354 285.907 26.4993C286.263 25.8381 286.752 25.3317 287.367 24.976C287.995 24.5993 288.686 24.4068 289.443 24.4068C290.678 24.4068 291.64 24.7918 292.331 25.5577C293.034 26.3277 293.385 27.3321 293.385 28.575C293.385 28.7257 293.373 28.9098 293.352 29.1275L293.348 29.1316ZM289.456 25.9511C288.882 25.9511 288.405 26.1185 288.029 26.4533C287.627 26.7755 287.393 27.2149 287.313 27.7673H291.548C291.515 27.2275 291.306 26.7839 290.916 26.4365C290.506 26.1101 290.017 25.9511 289.456 25.9511Z" fill="white"/>
<path d="M296.641 20.3348V32.6345H294.842V20.3348H296.641Z" fill="white"/>
<path d="M300.362 20.3348V32.6345H298.562V20.3348H300.362Z" fill="white"/>
<path d="M302.35 22.7872C302.111 22.5487 301.994 22.2725 301.994 21.9586C301.994 21.6447 302.111 21.3518 302.35 21.1132C302.576 20.8747 302.852 20.7575 303.178 20.7575C303.505 20.7575 303.794 20.8747 304.024 21.1132C304.25 21.3392 304.367 21.6238 304.367 21.9586C304.367 22.2934 304.254 22.5571 304.024 22.7872C303.785 23.0258 303.505 23.1429 303.178 23.1429C302.852 23.1429 302.588 23.0258 302.35 22.7872ZM302.287 32.6345V24.57H304.087V32.6345H302.287Z" fill="white"/>
<path d="M309.368 32.6973C308.209 32.6973 307.267 32.283 306.543 31.4502C305.807 30.6299 305.438 29.6715 305.438 28.5793C305.438 27.5539 305.79 26.6165 306.493 25.7711C306.828 25.361 307.251 25.0346 307.765 24.796C308.28 24.5575 308.828 24.4403 309.414 24.4403C309.866 24.4403 310.343 24.5491 310.841 24.7667C311.381 25.0136 311.787 25.361 312.059 25.8046V24.57H313.813V32.5843C313.813 33.4171 313.616 34.1453 313.227 34.773C312.817 35.4217 312.298 35.8904 311.67 36.1834C311.021 36.5098 310.28 36.6688 309.448 36.6688C308.129 36.6688 307.066 36.2671 306.267 35.4677C305.857 35.0576 305.589 34.547 305.472 33.9444L307.158 33.4589C307.255 33.9025 307.514 34.275 307.937 34.5763C308.36 34.9028 308.841 35.0618 309.381 35.0618C310.117 35.0618 310.737 34.8567 311.247 34.455C311.754 34.049 312.009 33.4506 312.009 32.6638V31.333C311.812 31.6468 311.54 31.9189 311.18 32.1449C310.825 32.3625 310.494 32.509 310.188 32.5843C309.854 32.6596 309.577 32.6973 309.36 32.6973H309.368ZM312.047 28.5458C312.047 27.8301 311.825 27.2359 311.381 26.763C310.946 26.2859 310.368 26.0473 309.644 26.0473C308.92 26.0473 308.334 26.2859 307.891 26.763C307.447 27.2401 307.225 27.8343 307.225 28.5458C307.225 29.2572 307.451 29.8599 307.908 30.3453C308.364 30.8433 308.941 31.0902 309.644 31.0902C310.347 31.0902 310.925 30.8391 311.381 30.3453C311.825 29.8473 312.047 29.2488 312.047 28.5458Z" fill="white"/>
<path d="M323.195 29.1316H317.064C317.077 29.7175 317.323 30.2156 317.809 30.6341C318.294 31.0525 318.834 31.2534 319.433 31.2409C320.558 31.2409 321.27 30.7847 321.575 29.8766L323.086 30.3453C322.944 30.8307 322.689 31.266 322.316 31.6426C321.944 32.0193 321.508 32.308 321.01 32.5006C320.491 32.6847 319.973 32.7768 319.454 32.7768C318.286 32.7977 317.286 32.4001 316.453 31.5757C315.62 30.7554 315.214 29.7594 315.235 28.5918C315.235 27.8343 315.407 27.1354 315.754 26.4993C316.11 25.8381 316.599 25.3317 317.215 24.976C317.842 24.5993 318.533 24.4068 319.29 24.4068C320.525 24.4068 321.488 24.7918 322.178 25.5577C322.881 26.3277 323.233 27.3321 323.233 28.575C323.233 28.7257 323.22 28.9098 323.199 29.1275L323.195 29.1316ZM319.303 25.9511C318.73 25.9511 318.253 26.1185 317.876 26.4533C317.474 26.7755 317.24 27.2149 317.16 27.7673H321.395C321.362 27.2275 321.153 26.7839 320.764 26.4365C320.353 26.1101 319.864 25.9511 319.303 25.9511Z" fill="white"/>
<path d="M330.121 32.6345V28.1231C330.121 27.4953 329.971 27.0057 329.669 26.6458C329.368 26.2901 328.924 26.1101 328.338 26.1101C327.753 26.1101 327.309 26.2943 326.974 26.6625C326.639 27.0308 326.472 27.5205 326.472 28.1398V32.6345H324.672V24.57H326.426V25.6581C326.664 25.3443 326.949 25.0848 327.284 24.8797C327.619 24.683 327.907 24.5533 328.142 24.4905C328.414 24.4361 328.661 24.411 328.887 24.411C329.883 24.411 330.632 24.7123 331.142 25.3192C331.653 25.905 331.904 26.6876 331.904 27.6711V32.6345H330.121Z" fill="white"/>
<path d="M337.457 32.781C336.29 32.8019 335.29 32.4001 334.465 31.5715C333.636 30.7429 333.235 29.7469 333.256 28.5793C333.256 27.8218 333.44 27.1229 333.808 26.4868C334.164 25.8506 334.674 25.3401 335.331 24.9634C335.968 24.5951 336.683 24.411 337.474 24.411C338.437 24.411 339.253 24.6663 339.922 25.1727C340.592 25.6707 341.019 26.2817 341.203 27.0057L339.579 27.5414C339.483 27.194 339.278 26.8634 338.964 26.5537C338.596 26.2064 338.098 26.0348 337.47 26.0348C336.809 26.0348 336.248 26.2691 335.783 26.7337C335.327 27.2108 335.101 27.8218 335.101 28.5667C335.101 29.3116 335.323 29.9184 335.767 30.4165C336.223 30.9019 336.796 31.1488 337.487 31.1488C338.516 31.1488 339.223 30.6341 339.613 29.6088L341.253 30.1444C341.069 30.8057 340.667 31.3916 340.052 31.9105C339.382 32.4964 338.516 32.7852 337.457 32.7852V32.781Z" fill="white"/>
<path d="M349.963 29.1316H343.832C343.844 29.7175 344.091 30.2156 344.576 30.6341C345.062 31.0525 345.602 31.2534 346.2 31.2409C347.326 31.2409 348.037 30.7847 348.343 29.8766L349.854 30.3453C349.711 30.8307 349.456 31.266 349.084 31.6426C348.711 32.0193 348.276 32.308 347.778 32.5006C347.259 32.6847 346.74 32.7768 346.221 32.7768C345.054 32.7977 344.053 32.4001 343.221 31.5757C342.388 30.7554 341.982 29.7594 342.003 28.5918C342.003 27.8343 342.174 27.1354 342.522 26.4993C342.877 25.8381 343.367 25.3317 343.982 24.976C344.61 24.5993 345.3 24.4068 346.058 24.4068C347.293 24.4068 348.255 24.7918 348.946 25.5577C349.649 26.3277 350 27.3321 350 28.575C350 28.7257 349.988 28.9098 349.967 29.1275L349.963 29.1316ZM346.071 25.9511C345.497 25.9511 345.02 26.1185 344.643 26.4533C344.242 26.7755 344.007 27.2149 343.928 27.7673H348.163C348.13 27.2275 347.92 26.7839 347.531 26.4365C347.121 26.1101 346.631 25.9511 346.071 25.9511Z" fill="white"/>
<path d="M205.727 53.0446C204.388 53.0446 203.333 52.6764 202.563 51.9398C201.839 51.2577 201.433 50.4751 201.345 49.5878L203.145 49.1024C203.274 49.8055 203.567 50.3579 204.019 50.7555C204.484 51.1656 205.061 51.3706 205.756 51.3706C206.342 51.3706 206.848 51.2158 207.28 50.9019C207.69 50.5881 207.895 50.1947 207.895 49.7176C207.895 49.2405 207.74 48.889 207.426 48.6002C207.112 48.3072 206.685 48.1022 206.145 47.985L204.685 47.692C203.743 47.4954 203.015 47.1062 202.496 46.5244C201.965 45.9511 201.701 45.2689 201.701 44.4822C201.68 43.5322 202.065 42.691 202.852 41.967C203.643 41.243 204.555 40.8915 205.593 40.9124C207.087 40.9249 208.179 41.3727 208.87 42.2599C209.259 42.7119 209.514 43.2392 209.631 43.8335L207.895 44.3692C207.778 43.9046 207.518 43.4945 207.116 43.1346C206.715 42.7789 206.225 42.5989 205.639 42.5989C205.053 42.5989 204.572 42.7663 204.195 43.1011C203.793 43.4359 203.597 43.8377 203.597 44.3022C203.597 44.6579 203.731 44.9886 204.003 45.2899C204.283 45.5828 204.647 45.7753 205.091 45.8758L206.585 46.1687C207.623 46.3738 208.422 46.7755 208.979 47.3698C209.535 47.9641 209.816 48.7048 209.816 49.592C209.816 50.4792 209.464 51.2786 208.761 51.9607C208.004 52.6847 206.991 53.0488 205.727 53.0488V53.0446Z" fill="white"/>
<path d="M213.611 52.0068L210.025 44.8505H212.067L214.582 50.1403L216.901 44.8505H218.847L213.314 56.8907H211.402L213.607 52.0068H213.611Z" fill="white"/>
<path d="M222.224 53.0614C221.023 53.0488 220.14 52.6722 219.579 51.9273C219.253 51.5046 219.077 51.0986 219.043 50.7094L220.584 50.3035C220.671 50.6927 220.856 51.0024 221.136 51.2367C221.416 51.4711 221.772 51.5841 222.207 51.5841C222.563 51.5841 222.843 51.5004 223.044 51.333C223.245 51.1656 223.346 50.9354 223.346 50.6425C223.346 50.1989 223.028 49.9017 222.387 49.7511L221.366 49.5083C220.676 49.3451 220.144 49.0605 219.776 48.6546C219.408 48.2487 219.223 47.7632 219.223 47.2024C219.223 46.5119 219.5 45.9176 220.052 45.4196C220.604 44.9216 221.278 44.6747 222.082 44.6747C223.216 44.6872 224.045 45.043 224.563 45.746C224.835 46.1018 224.994 46.4659 225.049 46.8341L223.538 47.2568C223.463 46.922 223.304 46.65 223.061 46.4449C222.818 46.2399 222.492 46.1352 222.082 46.1352C221.78 46.1352 221.521 46.2231 221.303 46.3947C221.086 46.5454 220.977 46.763 220.977 47.0434C220.977 47.4954 221.249 47.7799 221.789 47.8887L222.894 48.1147C223.618 48.278 224.183 48.5751 224.58 49.0061C224.982 49.4623 225.179 49.9729 225.179 50.5462C225.179 51.2284 224.923 51.8184 224.409 52.3165C223.894 52.8145 223.166 53.0614 222.228 53.0614H222.224Z" fill="white"/>
<path d="M231.26 44.8504V46.4742H229.217V50.3202C229.217 50.6759 229.314 50.9396 229.51 51.107C229.707 51.2744 230.017 51.3581 230.452 51.3581C230.67 51.3581 230.912 51.3371 231.184 51.2953V52.8354C230.783 52.9442 230.356 52.9986 229.904 52.9986C229.071 52.9986 228.447 52.8019 228.037 52.4127C227.627 52.0235 227.422 51.3581 227.422 50.4165V46.4742H225.865V44.8504H227.422V42.352H229.222V44.8504H231.264H231.26Z" fill="white"/>
<path d="M239.843 49.4079H233.712C233.724 49.9938 233.971 50.4918 234.457 50.9103C234.942 51.3288 235.482 51.5297 236.081 51.5171C237.206 51.5171 237.918 51.061 238.223 50.1528L239.734 50.6215C239.592 51.107 239.337 51.5422 238.964 51.9189C238.592 52.2955 238.156 52.5843 237.658 52.7768C237.139 52.9609 236.62 53.053 236.102 53.053C234.934 53.0739 233.934 52.6764 233.101 51.8519C232.268 51.0317 231.862 50.0356 231.883 48.868C231.883 48.1105 232.055 47.4117 232.402 46.7755C232.758 46.1143 233.247 45.6079 233.863 45.2522C234.49 44.8756 235.181 44.683 235.938 44.683C237.173 44.683 238.135 45.0681 238.826 45.8339C239.529 46.5998 239.881 47.6083 239.881 48.8513C239.881 49.0019 239.868 49.1861 239.847 49.4037L239.843 49.4079ZM235.951 46.2273C235.378 46.2273 234.9 46.3947 234.524 46.7295C234.122 47.0517 233.888 47.4912 233.808 48.0436H238.043C238.01 47.5037 237.801 47.0601 237.411 46.7128C237.001 46.3863 236.512 46.2273 235.951 46.2273Z" fill="white"/>
<path d="M246.623 52.9149V48.3868C246.623 47.759 246.48 47.2694 246.192 46.9095C245.907 46.5537 245.476 46.3738 244.903 46.3738C244.329 46.3738 243.907 46.5579 243.605 46.9262C243.279 47.3154 243.12 47.8134 243.12 48.4202V52.9149H241.32V44.8505H243.074V45.9385C243.321 45.6037 243.605 45.3443 243.919 45.1601C244.254 44.9425 244.53 44.8086 244.748 44.7542C245.02 44.6998 245.267 44.6747 245.493 44.6747C246.652 44.6747 247.476 45.1141 247.974 45.9888C248.364 45.5577 248.786 45.2229 249.238 44.9844C249.661 44.7793 250.172 44.6747 250.778 44.6747C251.762 44.6747 252.507 44.9886 253.017 45.6163C253.482 46.2106 253.716 46.9848 253.716 47.9348V52.9149H251.917V48.3742C251.917 47.7465 251.774 47.2568 251.486 46.9053C251.197 46.5537 250.77 46.378 250.197 46.378C249.623 46.378 249.201 46.5621 248.899 46.9304C248.577 47.307 248.414 47.8009 248.414 48.4077V52.9191H246.631L246.623 52.9149Z" fill="white"/>
<path d="M258.215 53.0614C257.014 53.0488 256.131 52.6722 255.57 51.9273C255.243 51.5046 255.068 51.0986 255.034 50.7094L256.574 50.3035C256.662 50.6927 256.846 51.0024 257.127 51.2367C257.407 51.4711 257.763 51.5841 258.198 51.5841C258.554 51.5841 258.834 51.5004 259.035 51.333C259.236 51.1656 259.336 50.9354 259.336 50.6425C259.336 50.1989 259.018 49.9017 258.378 49.7511L257.357 49.5083C256.666 49.3451 256.135 49.0605 255.767 48.6546C255.398 48.2487 255.214 47.7632 255.214 47.2024C255.214 46.5119 255.49 45.9176 256.043 45.4196C256.595 44.9216 257.269 44.6747 258.072 44.6747C259.207 44.6872 260.035 45.043 260.554 45.746C260.826 46.1018 260.985 46.4659 261.04 46.8341L259.529 47.2568C259.454 46.922 259.294 46.65 259.052 46.4449C258.809 46.2399 258.483 46.1352 258.072 46.1352C257.771 46.1352 257.512 46.2231 257.294 46.3947C257.076 46.5454 256.968 46.763 256.968 47.0434C256.968 47.4954 257.24 47.7799 257.78 47.8887L258.884 48.1147C259.608 48.278 260.173 48.5751 260.571 49.0061C260.973 49.4623 261.169 49.9729 261.169 50.5462C261.169 51.2284 260.914 51.8184 260.399 52.3165C259.885 52.8145 259.156 53.0614 258.219 53.0614H258.215Z" fill="white"/>
<path d="M124.58 0C121.391 0 118.726 2.73698 118.726 5.91756C118.726 9.09815 121.391 11.7724 124.58 11.7724C127.769 11.7724 130.498 9.10652 130.498 5.91756C130.498 2.72861 127.836 0 124.58 0ZM124.614 16.2126C123.153 16.2126 121.827 16.8027 120.872 17.7611C119.914 18.7194 119.324 20.0461 119.324 21.5024V53.2413H129.908V21.5024C129.908 18.5855 127.535 16.2126 124.614 16.2126Z" fill="white"/>
<path d="M145.074 26.7295C145.074 24.729 146.995 23.6954 149.368 23.6954C152.105 23.6954 154.181 25.1015 155.285 27.4702L163.434 23.0299C160.546 17.9285 155.361 15.1831 149.368 15.1831C141.739 15.1831 135.302 19.4016 135.302 26.9555C135.302 39.9875 154.402 37.0245 154.402 42.4315C154.402 44.5784 152.331 45.6121 149.293 45.6121C145.589 45.6121 143.078 43.8377 142.036 40.8036L133.741 45.4698C136.407 51.1698 141.889 54.2792 149.293 54.2792C157.215 54.2792 164.174 50.429 164.174 42.4315C164.174 28.8094 145.074 32.2118 145.074 26.7337V26.7295Z" fill="white"/>
<path d="M113.339 34.7186C113.339 35.0534 113.314 53.2413 113.314 53.2413H103.906V50.4709C95.5155 57.3301 83.4711 54.0993 78.0767 46.1687C80.2236 43.3731 82.1654 40.4437 84.1658 37.5811C85.4046 41.7536 89.2673 44.8044 93.8373 44.8044C102.764 44.8672 107.284 33.7644 100.969 27.5916C98.1688 24.7081 93.5737 23.8167 89.8951 25.4363C84.6053 27.7297 79.7716 37.0999 75.8084 42.126C74.1721 44.3734 72.4353 46.5579 70.4935 48.5039C62.8894 56.0997 50.527 56.0955 42.927 48.5039C42.1947 47.7716 41.5334 46.9932 40.9434 46.1813C43.0903 43.3773 45.0405 40.4353 47.0451 37.5686C49.012 44.7709 58.6291 47.2652 63.8478 41.8498C69.6189 35.9448 74.0884 26.8215 80.0604 20.9375C84.3751 16.6018 90.7572 14.4759 96.8045 15.451C106.108 16.8278 113.385 25.0764 113.339 34.7186Z" fill="white"/>
<path d="M68.6186 19.2593L62.8182 26.6918C58.8717 23.687 53.1844 23.9883 49.5811 27.5916C43.9021 33.3752 39.4032 42.5194 33.3685 48.5081C25.7685 56.0997 13.4019 56.1039 5.802 48.5081C-11.2141 30.2365 12.8035 5.05546 31.4852 19.3514L25.7309 26.7211C21.7761 23.6828 16.0761 23.9632 12.4519 27.5874C3.35797 37.351 16.9382 50.9521 26.7227 41.8456C33.2597 35.2208 37.6748 24.8713 45.1869 18.9956C51.9916 13.8648 61.9226 14.0741 68.6186 19.2593Z" fill="white"/>
<path d="M183.383 0.401733H181.739V53.2371H183.383V0.401733Z" fill="white"/>
</svg>
