<?xml version="1.0" encoding="utf-8"?>
<!-- Generator: Adobe Illustrator 28.0.0, SVG Export Plug-In . SVG Version: 6.00 Build 0)  -->
<svg version="1.1" id="Layer_1" xmlns="http://www.w3.org/2000/svg" xmlns:xlink="http://www.w3.org/1999/xlink" x="0px" y="0px"
	 viewBox="0 0 220 72.8" style="enable-background:new 0 0 220 72.8;" xml:space="preserve">
<style type="text/css">
	.st0{fill:#FFFFFF;}
</style>
<g id="Group_11957" transform="translate(-40 -70)">
	<path id="Path_1" class="st0" d="M228.6,82.1c-4.2,0-5.5-2.2-5.5-6.1c0-3.7,1.3-6,5.5-6h25.9c4.2,0,5.5,2.4,5.5,6
		c0,3.7-1.3,6.1-5.5,6.1h-6.4v33.8c0,4.5-2.5,6.6-6.6,6.6s-6.6-1.8-6.6-6.6V82.1H228.6z"/>
	<path id="Path_2" class="st0" d="M167.1,83.3c0-4,2.2-5.4,5.7-5.4s5.7,1.3,5.7,5.5v20.3c0,6.4,2.5,9.4,6.9,9.4c4.5,0,6.9-3,6.9-9.4
		v-23c0-4,2.2-5.5,5.7-5.5s5.7,1.3,5.7,5.5v22.5c0,11.8-5,19.7-18.2,19.7c-13.1,0-18.2-7.9-18.2-19.7L167.1,83.3z"/>
	<path id="Path_3" class="st0" d="M212.3,122.1c-4.2,0-5.5-2.2-5.5-6.1V78.2c0-4.4,2.4-5.9,6.2-5.9s6.1,1.5,6.1,5.9v32.6h8.4
		c3.9,0,5.2,2.2,5.2,5.5c0,3.5-1.3,5.5-5.2,5.5L212.3,122.1z"/>
	<path id="Path_4" class="st0" d="M135.6,117.1c0,3.9,2,5.2,5.4,5.2c3.4,0,5.4-1.3,5.4-5.2v-6.4h4c10.3,0,14.8-5.9,14.8-14.1
		s-4.5-14.3-17.1-14.3h-7.2c-3.9,0-5.2,2-5.2,5.5V117.1z M146.1,102.4V90.8h1.7c5.7,0,6.4,3.2,6.4,5.9c0,2.9-0.8,5.7-6.4,5.7
		L146.1,102.4z"/>
	<path id="Path_5" class="st0" d="M86.4,98.9c-2.9,0-3.7-1.5-3.7-3.9c0-2.5,1-4,3.7-4h16.1c2.9,0,3.7,1.5,3.7,4c0,2.5-1,4-3.7,4H99
		v19.3c0,3.2-1.7,4.2-4.5,4.2s-4.5-1-4.5-4.2V99.1L86.4,98.9z"/>
	<path id="Path_6" class="st0" d="M112.6,115.2h10.3l0.8,2.7c0.8,3.5,2.9,4.4,5.5,4.4c3.5,0,5.7-2,4.7-5.7c-0.8-3.4-7.9-24-7.9-24
		c-1.8-5.5-3.5-6.9-7.9-6.9s-5.9,1.3-7.9,6.9c0,0-7.6,20.5-8.4,24c-1,3.9,0.8,5.7,4.4,5.7c2.9,0,4.4-1,5.5-4.5L112.6,115.2z
		 M114.3,107l3.7-13.1l3.2,13.1H114.3z"/>
	<path id="Path_7" class="st0" d="M70.8,116.7H79l0.7,2.2c0.7,2.7,2.2,3.5,4.5,3.5c2.7,0,4.5-1.5,3.7-4.5
		c-0.8-2.7-6.7-19.2-6.7-19.2c-1.5-4.2-2.7-5.4-6.2-5.4s-4.7,1-6.2,5.4c0,0-5.5,16.3-6.4,19c-0.8,3,0.7,4.5,3.5,4.5
		c2.2,0,3.4-0.8,4.4-3.5L70.8,116.7z M72.1,110.2l2.5-10.4l2.9,10.4H72.1z"/>
	<path id="Path_8" class="st0" d="M51.9,115.9c1.3,0,2.5-0.5,3.5-1.3c1.2-1.1,3.1-1.1,4.2,0.1c0.1,0.1,0.1,0.1,0.2,0.2
		c1.3,1.3,1.3,3.3,0.1,4.7c-0.1,0.1-0.2,0.2-0.2,0.2c-2.2,2-5.1,3.1-8.1,3c-6.7,0-11.6-5.2-11.6-12.8c0-7.7,5.4-12.8,11.9-12.8
		c2.9-0.1,5.8,0.9,7.9,2.9c1.3,1,1.5,2.9,0.5,4.2c0,0.1-0.1,0.1-0.1,0.2c-0.8,1.4-2.6,2-4,1.2c-0.1-0.1-0.2-0.1-0.4-0.2
		c-1-1-2.4-1.7-3.9-1.7c-3,0-4.9,2.7-4.9,6.2C47.2,113.5,49.2,115.9,51.9,115.9"/>
	<path id="Path_9" class="st0" d="M152.8,130.5c0-0.6,0.5-1.2,1.1-1.2c0,0,0,0,0.1,0h3.5c0.7,0,1.2,0.3,1.2,1s-0.3,1-1.2,1h-2.4v1.8
		h2.2c0.7,0,1.2,0.3,1.2,1c0,0.7-0.3,1-1.2,1h-2.2v1.8h2.4c0.7,0,1.2,0.3,1.2,1s-0.3,1-1.2,1h-3.5c-0.6,0-1.2-0.5-1.2-1.1
		c0,0,0,0,0-0.1V130.5z"/>
	<path id="Path_10" class="st0" d="M159.2,133c0-0.6,0.4-1.1,1-1.2c0.7,0,1,0.3,1,0.7c0.4-0.6,1.1-0.9,1.8-0.8
		c1.3-0.1,2.5,0.8,2.7,2.1c0,0.1,0,0.2,0,0.4v4c0,0.6-0.4,1.1-1,1.2c-0.7,0-1-0.5-1-1.2v-3.5c0-0.7-0.5-1.3-1.2-1.3
		c-0.7,0-1.2,0.6-1.2,1.2c0,0,0,0.1,0,0.1v3.5c0,0.6-0.4,1.1-1,1.2c-0.7,0-1-0.5-1-1.2V133L159.2,133z"/>
	<path id="Path_11" class="st0" d="M171.8,134.9c0-0.7-0.6-1.3-1.4-1.3c-0.7,0-1.3,0.6-1.3,1.3H171.8z M168.9,136.4
		c0,0.5,0.3,1.2,1.7,1.2c1,0,1.7-0.7,2.2-0.7s0.8,0.3,0.8,1c0,1-1.8,1.7-3.4,1.7c-2,0.1-3.8-1.5-3.9-3.5c0-0.1,0-0.2,0-0.3
		c0-2.1,1.6-3.8,3.7-3.9c0,0,0.1,0,0.1,0c2,0,3.6,1.7,3.5,3.6c0,0,0,0,0,0.1c0,0.8-0.3,1-1,1h-3.9L168.9,136.4z"/>
	<path id="Path_12" class="st0" d="M174.6,133c0-0.6,0.4-1.1,1-1.2c0.5,0,1,0.3,1,0.7c0.3-0.5,0.9-0.8,1.5-0.8
		c0.6,0,1.1,0.5,1.2,1.2c0,0.7-0.5,1-1.3,1.2c-1,0.3-1.2,0.5-1.2,1.7v2.7c0,0.6-0.4,1.1-1,1.2c-0.7,0-1-0.5-1-1.2V133H174.6z"/>
	<path id="Path_13" class="st0" d="M182.9,133.9c-1,0-1.5,0.8-1.5,1.8c0,1,0.5,1.8,1.5,1.8s1.5-0.8,1.5-1.8
		C184.4,134.7,183.9,133.9,182.9,133.9 M186.6,138.7c0,2.9-1.8,3.9-4,3.9c-1.2,0-3.2-0.5-3.2-1.7c0-0.5,0.4-0.9,0.8-1
		c0.7,0,1,0.7,2.4,0.7c0.9,0.1,1.7-0.5,1.8-1.3c0-0.2,0-0.3,0-0.5l0,0c-0.5,0.6-1.2,0.9-2,0.8c-2.2,0-3.2-1.8-3.2-3.9
		c-0.1-2,1.4-3.7,3.3-3.9c0,0,0,0,0,0c0.7-0.1,1.4,0.2,1.8,0.8c0.2-0.4,0.6-0.7,1-0.7c0.7,0,1,0.5,1,1.2v5.5L186.6,138.7z"/>
	<path id="Path_14" class="st0" d="M189.2,138.7l-1.9-4.4c-0.2-0.5-0.5-1.2-0.5-1.3c0-0.5,0.4-1,0.9-1c0,0,0.1,0,0.1,0
		c0.5,0,0.8,0.3,1.2,0.8l1.3,3.4l1.2-3c0.3-0.7,0.5-1.2,1.2-1.2c0.6,0,1.2,0.5,1.2,1.1c0,0,0,0,0,0.1c0,0.4-0.1,0.7-0.3,1l-3.2,7.6
		c-0.1,0.6-0.6,1-1.2,1c-0.5,0-1-0.4-1-0.9c0,0,0-0.1,0-0.1c0.1-0.4,0.2-0.8,0.3-1.2L189.2,138.7z"/>
	<path id="Path_15" class="st0" d="M198.8,136.7c0.8,0.2,1.7,0.4,2.5,0.5c0.8,0,1.2-0.5,1.2-1c0-0.7-0.8-0.8-2.2-1.3
		c-1.2-0.3-2.4-0.8-2.4-2.7c0-2.2,1.7-3.2,3.5-3.2s2.9,0.7,2.9,1.5c0.1,0.5-0.3,0.9-0.8,1c-0.1,0-0.2,0-0.3,0c-0.7,0-1-0.3-1.8-0.3
		c-0.7,0-1,0.3-1,0.8s0.5,0.7,2.2,1.2c1.4,0.2,2.4,1.4,2.4,2.9c0,2.4-1.7,3.4-3.9,3.4c-1.3,0-3.4-0.5-3.4-1.7
		C197.9,137.2,198.3,136.8,198.8,136.7"/>
	<path id="Path_16" class="st0" d="M207.1,138.7l-1.9-4.4c-0.2-0.5-0.5-1.2-0.5-1.3c0-0.5,0.4-1,0.9-1c0,0,0.1,0,0.1,0
		c0.5,0,0.8,0.3,1.2,0.8l1.3,3.4l1.2-3c0.3-0.7,0.5-1.2,1.2-1.2c0.6,0,1.2,0.5,1.2,1.1c0,0,0,0,0,0.1c0,0.4-0.1,0.7-0.3,1l-3.2,7.6
		c-0.1,0.6-0.6,1-1.2,1c-0.5,0-1-0.4-1-0.9c0,0,0-0.1,0-0.1c0.1-0.4,0.2-0.8,0.3-1.2L207.1,138.7z"/>
	<path id="Path_17" class="st0" d="M212.8,137.1c0.7,0,1.2,0.7,2,0.7c0.5,0,0.7-0.2,0.7-0.5c0-0.5-0.5-0.5-1.7-1s-1.7-0.8-1.7-2
		c0.1-1.5,1.3-2.6,2.8-2.5c0,0,0,0,0.1,0c0.8,0,2.5,0.3,2.5,1.5c0,0.4-0.3,0.8-0.7,0.8c0,0-0.1,0-0.1,0c-0.5,0-1-0.5-1.7-0.5
		c-0.2,0-0.5,0.1-0.5,0.4c0,0,0,0.1,0,0.1c0,0.8,3.4,0.7,3.4,3c-0.1,1.5-1.3,2.6-2.8,2.5c0,0,0,0-0.1,0c-1.3,0-2.9-0.5-2.9-1.5
		C211.8,137.6,212.3,137.1,212.8,137.1"/>
	<path id="Path_18" class="st0" d="M218.8,134h-0.3c-0.7,0-1.2-0.3-1.2-1s0.5-1,1.2-1h0.3v-1.3c0-0.6,0.4-1.1,1-1.2
		c0.7,0,1,0.5,1,1.2v1.3h0.7c0.7,0,1.2,0.3,1.2,1c0,0.7-0.5,1-1.2,1h-0.7v4.4c0,0.6-0.4,1.1-1,1.2c-0.7,0-1-0.5-1-1.2V134z"/>
	<path id="Path_19" class="st0" d="M227.7,134.9c0-0.7-0.6-1.3-1.4-1.3c-0.7,0-1.3,0.6-1.3,1.3H227.7z M224.9,136.4
		c0,0.5,0.3,1.2,1.7,1.2c1,0,1.7-0.7,2.2-0.7s0.8,0.3,0.8,1c0,1-1.8,1.7-3.4,1.7c-2,0.1-3.8-1.5-3.9-3.5c0-0.1,0-0.2,0-0.3
		c0-2.1,1.6-3.8,3.7-3.9c0,0,0.1,0,0.1,0c2,0,3.6,1.7,3.5,3.6c0,0,0,0,0,0.1c0,0.8-0.3,1-1,1h-3.9V136.4z"/>
	<path id="Path_20" class="st0" d="M230.6,133c0-0.6,0.4-1.1,1-1.2c0.5,0,1,0.3,1,0.7c0.4-0.6,1.1-0.9,1.8-0.8
		c0.8-0.1,1.5,0.3,2,0.8c0.6-0.5,1.4-0.8,2.2-0.8c1.3-0.1,2.5,0.8,2.7,2.1c0,0.1,0,0.2,0,0.4v4c0,0.6-0.4,1.1-1,1.2
		c-0.7,0-1-0.5-1-1.2v-3.5c0-0.7-0.3-1.3-1-1.3c-0.7,0-1,0.7-1,1.3v3.5c0,0.6-0.4,1.1-1,1.2c-0.7,0-1-0.5-1-1.2v-3.5
		c0-0.7-0.3-1.3-1-1.3c-0.7,0-1,0.7-1,1.3v3.5c0,0.6-0.4,1.1-1,1.2c-0.7,0-1-0.5-1-1.2V133L230.6,133z"/>
	<path id="Path_21" class="st0" d="M243,137.1c0.7,0,1.2,0.7,2,0.7c0.5,0,0.7-0.2,0.7-0.5c0-0.5-0.5-0.5-1.7-1s-1.7-0.8-1.7-2
		c0.1-1.5,1.3-2.6,2.8-2.5c0,0,0,0,0.1,0c0.8,0,2.5,0.3,2.5,1.5c0,0.4-0.3,0.8-0.7,0.8c0,0-0.1,0-0.1,0c-0.5,0-1-0.5-1.7-0.5
		c-0.2,0-0.5,0.1-0.5,0.4c0,0,0,0.1,0,0.1c0,0.8,3.4,0.7,3.4,3c-0.1,1.5-1.3,2.6-2.8,2.5c0,0,0,0-0.1,0c-1.3,0-2.9-0.5-2.9-1.5
		C242,137.6,242.5,137.1,243,137.1"/>
</g>
</svg>
