<svg width="148" height="117" viewBox="0 0 148 117" fill="none" xmlns="http://www.w3.org/2000/svg">
<g clip-path="url(#clip0_284_5441)">
<path d="M66.0413 40.463L58.5773 48.1095L53.4558 53.2071C51.6516 55.0463 49.4982 56.509 47.1412 57.5517L46.792 57.711C41.9033 59.7095 36.418 59.7095 31.5293 57.711L30.3071 57.1173C28.2265 56.1035 26.3496 54.7277 24.7346 53.0623C22.7703 51.1652 21.2135 48.877 20.195 46.3427C20.0204 45.8792 19.8604 45.4158 19.7149 44.8945C19.4094 43.9531 19.1766 42.9828 19.0165 41.9981C18.9001 41.2595 18.8128 40.5209 18.7546 39.7823V38.5948C18.7546 33.3233 20.908 28.2691 24.7346 24.6197C27.7027 21.5495 31.602 19.5655 35.836 18.9572C38.9351 18.5083 42.0924 18.7834 45.0751 19.7537C43.882 20.9412 42.4562 22.317 40.8266 23.9101C38.0185 26.6616 35.1085 29.558 32.0967 32.5992L23.0031 41.6505L23.2214 42.7511C24.6764 48.6163 29.245 53.2216 35.1231 54.7422L36.3744 55.0319L73.4762 18.0593L66.9288 11.47C63.2041 7.74815 58.7519 4.82279 53.8341 2.89668C44.3767 -0.897597 33.8282 -0.897597 24.3708 2.89668C19.4821 4.83727 15.059 7.74815 11.3488 11.47C7.62407 15.134 4.71412 19.522 2.79355 24.359C0.960283 28.9932 0 33.9461 0 38.9279C0 43.9386 0.960283 48.906 2.79355 53.5837C4.68502 58.4786 7.60952 62.9245 11.3488 66.6174C26.6115 81.867 51.4188 81.9104 66.7397 66.7188C66.7688 66.6898 66.8124 66.6464 66.8415 66.6174L72.2977 61.2301C68.2819 55.0608 66.114 47.8777 66.0413 40.5209M148 78.0582H129.085V38.9568C129.085 36.2777 128.562 33.6275 127.514 31.1655C125.448 26.343 121.592 22.5053 116.747 20.4489C114.274 19.3772 111.597 18.8269 108.89 18.8269C106.169 18.8269 103.478 19.3337 100.975 20.3764C98.5454 21.3902 96.3339 22.8673 94.4715 24.721C92.6237 26.5603 91.1396 28.7326 90.1066 31.1221C89.059 33.584 88.5352 36.2342 88.5497 38.9134C88.5497 44.2862 90.6595 49.4563 94.4424 53.294C98.2835 57.0738 103.478 59.1737 108.876 59.1592H125.317V77.9858H108.89C103.667 78.0148 98.5018 76.9721 93.7004 74.9446C84.2576 70.9476 76.7354 63.4604 72.7487 54.0471C70.7118 49.2535 69.6787 44.1124 69.6933 38.9134C69.6642 33.6854 70.6972 28.5153 72.7487 23.7073C74.7566 19.0875 77.6229 14.9023 81.2167 11.3686C84.8105 7.83504 89.0444 5.02554 93.7004 3.05599C103.449 -1.01345 114.434 -1.01345 124.182 3.05599C133.523 7.00957 140.958 14.4099 144.93 23.7073C146.996 28.5153 148.029 33.6854 148 38.9134V78.0582Z" fill="white"/>
<path d="M6.13999 90.3965V94.3211H9.18089V96.4644H6.13999V106.515C6.11089 107.036 6.25639 107.543 6.54738 107.963C6.92568 108.34 7.46402 108.513 8.00236 108.441C8.4534 108.427 8.88989 108.369 9.32638 108.267V110.497C8.628 110.686 7.91506 110.787 7.20212 110.787C6.13999 110.889 5.09241 110.469 4.36492 109.686C3.66653 108.774 3.33189 107.645 3.40464 106.5V96.4644H0.49469V94.3211H3.40464V90.3965H6.13999Z" fill="white"/>
<path d="M18.9147 110.802C16.8777 110.889 14.8989 110.093 13.4876 108.615C12.0472 107.037 11.3052 104.951 11.4216 102.823V102.316C11.3925 100.81 11.698 99.3324 12.3382 97.9711C12.9202 96.7836 13.8223 95.7843 14.928 95.0747C15.9902 94.3796 17.2415 94.0031 18.5218 94.0031C20.3987 93.9017 22.2175 94.6692 23.4542 96.0885C24.7346 97.7973 25.3602 99.9117 25.2147 102.041V103.199H14.2006C14.2006 104.618 14.7098 105.994 15.6555 107.066C16.5285 108.036 17.7798 108.557 19.0747 108.514C19.9477 108.543 20.8207 108.326 21.5773 107.906C22.232 107.5 22.814 106.979 23.2796 106.371L24.9819 107.689C23.6579 109.73 21.3445 110.918 18.9147 110.802ZM18.5655 96.3202C17.4888 96.3057 16.4558 96.7546 15.7428 97.5511C14.8989 98.5069 14.3897 99.709 14.2879 100.969H22.4357V100.752C22.4357 99.5641 22.0283 98.4201 21.2863 97.4932C20.5879 96.7112 19.5694 96.2767 18.5218 96.3202" fill="white"/>
<path d="M34.672 108.616C35.6178 108.63 36.549 108.312 37.2765 107.718C37.9894 107.168 38.4259 106.357 38.5132 105.473H41.1467C41.0739 106.429 40.7393 107.341 40.1719 108.109C39.5608 108.949 38.7605 109.615 37.8293 110.064C36.8545 110.556 35.7778 110.803 34.6866 110.803C32.6787 110.904 30.7291 110.108 29.3905 108.616C27.9937 106.921 27.2953 104.764 27.4263 102.577V102.099C27.3972 100.651 27.7027 99.2171 28.2993 97.8992C28.8231 96.7117 29.696 95.6979 30.8018 95.0028C31.9658 94.2932 33.3044 93.9456 34.6575 93.9746C36.3598 93.9166 38.0185 94.5104 39.2843 95.6545C40.4774 96.7551 41.1467 98.3047 41.1467 99.9267H38.5132C38.455 98.9419 38.033 98.0295 37.3201 97.3489C36.5926 96.6827 35.6469 96.3207 34.6575 96.3351C33.3771 96.2772 32.1549 96.842 31.3838 97.8557C30.5254 99.1446 30.118 100.665 30.2053 102.2V102.736C30.1034 104.271 30.5108 105.806 31.3693 107.081C32.1695 108.066 33.4062 108.616 34.672 108.529" fill="white"/>
<path d="M46.7338 96.2764C47.8832 94.8137 49.6728 93.9738 51.5497 94.0172C54.9835 94.0172 56.7149 95.9578 56.7585 99.81V110.512H53.965V99.7956C54.0377 98.8687 53.7468 97.9419 53.1648 97.2033C52.4955 96.595 51.6079 96.3054 50.7059 96.3778C49.862 96.3633 49.0326 96.6095 48.3342 97.0874C47.6504 97.5798 47.0975 98.217 46.7338 98.9701V110.556H43.9548V87.5293H46.7338V96.2764Z" fill="white"/>
<path d="M63.2623 94.3225L63.3641 96.3644C64.499 94.8293 66.3177 93.9604 68.2237 94.0183C71.6575 94.0183 73.4034 95.9589 73.4325 99.8111V110.513H70.639V99.7967C70.7117 98.8698 70.4207 97.943 69.8387 97.2189C69.1695 96.6106 68.2819 96.292 67.3798 96.3789C66.536 96.3644 65.7066 96.6106 65.0082 97.0885C64.3244 97.5664 63.7861 98.2181 63.4223 98.9712V110.557H60.6433V94.3225H63.2623Z" fill="white"/>
<path d="M76.5753 102.272C76.5462 100.766 76.8663 99.2888 77.521 97.9275C78.685 95.4511 81.2021 93.9015 83.952 93.9594C86.0035 93.887 87.9678 94.727 89.3354 96.2476C90.7613 97.9564 91.4888 100.129 91.387 102.344V102.533C91.416 103.995 91.096 105.444 90.4703 106.776C89.9029 107.978 89.0008 108.977 87.8659 109.672C86.7019 110.382 85.3488 110.744 83.9811 110.715C81.9296 110.831 79.9509 110.02 78.5686 108.514C77.1427 106.834 76.4007 104.662 76.5171 102.46L76.5753 102.272ZM79.3689 102.591C79.2816 104.14 79.7326 105.675 80.6347 106.935C82.0606 108.789 84.7086 109.137 86.571 107.717C86.862 107.486 87.1239 107.225 87.3567 106.935C88.2588 105.574 88.7098 103.952 88.6079 102.316C88.6952 100.766 88.2442 99.2309 87.3276 97.9709C85.9162 96.1317 83.2827 95.7697 81.4349 97.1744C81.1294 97.4061 80.8675 97.6668 80.6347 97.9709C79.7035 99.3467 79.267 100.983 79.3689 102.634" fill="white"/>
<path d="M97.5851 87.5293H94.8062V110.512H97.5851V87.5293Z" fill="white"/>
<path d="M100.99 102.272C100.961 100.766 101.281 99.2891 101.921 97.9278C102.503 96.7403 103.405 95.7265 104.54 95.0314C105.689 94.3218 107.013 93.9742 108.367 93.9887C110.403 93.9163 112.382 94.7562 113.735 96.2769C115.161 97.9857 115.889 100.158 115.787 102.374V102.562C115.845 104.025 115.554 105.487 114.943 106.834C114.376 108.036 113.473 109.035 112.339 109.731C111.175 110.44 109.821 110.802 108.454 110.773C106.417 110.846 104.453 110.006 103.1 108.485C101.674 106.805 100.932 104.633 101.048 102.432L100.99 102.272ZM103.783 102.591C103.711 104.141 104.147 105.661 105.035 106.936C106.46 108.789 109.138 109.137 110.985 107.718C111.276 107.5 111.538 107.24 111.771 106.936C112.673 105.574 113.11 103.952 113.008 102.316C113.081 100.766 112.644 99.2312 111.742 97.9712C110.331 96.132 107.697 95.77 105.849 97.1747C105.544 97.4064 105.282 97.6671 105.049 97.9712C104.118 99.347 103.681 100.984 103.783 102.634" fill="white"/>
<path d="M118.319 102.287C118.202 100.144 118.813 98.0149 120.064 96.2626C122.16 93.6703 125.972 93.2648 128.576 95.3502C128.867 95.5819 129.129 95.8426 129.376 96.1178L129.493 94.322H132.039V110.064C132.141 111.903 131.457 113.699 130.162 115.017C128.809 116.291 126.99 116.957 125.128 116.885C123.935 116.885 122.756 116.624 121.679 116.132C120.646 115.712 119.744 115.002 119.104 114.09L120.559 112.424C121.578 113.8 123.207 114.626 124.924 114.626C126.088 114.698 127.238 114.278 128.096 113.482C128.896 112.613 129.304 111.454 129.231 110.281V108.833C128.081 110.122 126.408 110.831 124.677 110.745C122.843 110.788 121.112 109.934 120.05 108.456C118.784 106.632 118.158 104.445 118.289 102.229M121.083 102.533C120.981 104.068 121.374 105.589 122.203 106.878C122.916 107.906 124.109 108.485 125.361 108.442C127.019 108.5 128.547 107.573 129.231 106.067V98.6811C128.518 97.2184 127.019 96.3205 125.39 96.364C124.138 96.3205 122.931 96.9143 122.218 97.9425C121.374 99.3328 120.967 100.969 121.083 102.591" fill="white"/>
<path d="M141.293 106.458L145.075 94.3216H147.985L141.511 112.96C140.492 115.654 138.892 117 136.68 117H136.157L135.123 116.812V114.567H135.88C136.651 114.611 137.422 114.408 138.077 114.003C138.717 113.452 139.168 112.728 139.372 111.917L139.998 110.266L134.178 94.2637H137.219L141.293 106.458Z" fill="white"/>
</g>
<defs>
<clipPath id="clip0_284_5441">
<rect width="148" height="117" fill="white"/>
</clipPath>
</defs>
</svg>
