<svg width="282" height="74" viewBox="0 0 282 74" fill="none" xmlns="http://www.w3.org/2000/svg">
<g clip-path="url(#clip0_284_5468)">
<path d="M47.3032 24.1393L50.4302 23.8142V1.35631L47.3032 1.03116L47.3601 0.380859H66.1449L66.3155 6.6148H65.656L63.5125 1.35631H53.6198V12.0415H59.2825L60.7039 7.92101H61.3634L61.2042 12.4227L61.3634 17.1374H60.7039L59.2825 12.9609H53.6198V23.8646L57.304 24.1898L57.2471 24.8345H47.3601L47.3032 24.1337V24.1393Z" fill="white"/>
<path d="M89.4441 15.2429L86.6411 7.48409L85.487 3.41409L81.257 15.2429H89.4441ZM73.8374 24.1958L76.6915 23.8706L85.4301 0.756818L87.1357 0L96.0904 23.8706L98.8365 24.1958L98.7796 24.8517H89.4952L89.4384 24.1958L92.5199 23.8706L89.8307 16.2744H80.876L78.1868 23.8706L81.3195 24.1958L81.2626 24.8517H73.9568L73.8431 24.1958H73.8374Z" fill="white"/>
<path d="M109.44 1.29935L107.296 1.03026L107.353 0.329498H115.808L115.864 0.974195L112.84 1.29935L118.503 19.2556L118.827 21.1L123.5 6.02526L121.851 1.24329L119.549 0.974195L119.606 0.273438H128.23L128.287 0.929347L125.263 1.24889L130.92 19.3172L131.249 21.0495L137.515 1.19844L134.382 0.929347L134.496 0.273438H141.085L141.199 0.929347L138.999 1.19844L131.471 24.4692L129.765 25.069L124.546 9.33283L124.273 7.70707L118.946 24.5309L117.24 25.1251L109.44 1.31056V1.29935Z" fill="white"/>
<path d="M158.943 24.8457H154.105L154.054 24.201L157.181 23.8759V1.35631L154.054 1.03116L154.105 0.380859H163.446L163.503 1.03116L160.37 1.35631V23.8703H169.655L171.963 18.4436H172.731L172.122 24.9018L158.938 24.8457H158.943Z" fill="white"/>
<path d="M185.142 24.1393L188.275 23.8142V1.35631L185.142 1.03116L185.199 0.380859H203.989L204.154 6.56434H203.495L201.351 1.35631H191.407V11.5537H197.065L198.497 7.64631H199.151L198.986 11.9293L199.151 16.4366H198.497L197.065 12.5292H191.407V23.9263H201.624L203.989 18.5557H204.7L204.041 24.9018H185.142V24.145V24.1393Z" fill="white"/>
<path d="M230.91 15.0303L230.961 23.815L234.975 24.1401L234.919 24.796H223.712L223.656 24.1401L227.778 23.815V15.2433L219.761 1.30105L217.015 0.975895L217.123 0.331198H226.464L226.578 0.975895L223.388 1.30105L229.819 12.586L230.256 13.7241L236.903 1.24499L233.554 0.92544L233.611 0.269531H241.133L241.246 0.92544L238.5 1.19453L230.922 15.0247L230.91 15.0303Z" fill="white"/>
<path d="M2.14343 49.9109L0 49.6418L0.0568548 48.9355H8.51685L8.56802 49.5914L5.54903 49.9165L11.2061 67.8727L11.5302 69.7171L16.2036 54.6312L14.5548 49.8605L12.2522 49.5914L12.3091 48.8906H21.042L21.0988 49.5353L18.0742 49.9165L23.7369 67.9793L24.061 69.7171L30.3264 49.9165L27.1994 49.6474L27.3074 48.9915H33.9025L34.0163 49.6474L31.816 49.9165L24.2884 73.1873L22.5827 73.7871L17.3635 58.0509L17.0906 56.4308L11.7633 73.249L10.0576 73.8488L2.14343 49.9109Z" fill="white"/>
<path d="M57.1391 63.804L54.3362 56.0452L53.182 51.9752L48.952 63.804H57.1391ZM41.5325 72.7569L44.3866 72.4317L53.0683 49.374L54.774 48.6172L63.7286 72.4878L66.4747 72.813L66.4178 73.4689H57.1334L57.0766 72.813L60.1581 72.4878L57.4689 64.8916H48.5711L45.8819 72.4878L49.0089 72.813L48.952 73.4689H41.6462L41.5325 72.7681H41.5382L41.5325 72.7569Z" fill="white"/>
<path d="M90.041 73.4565H79.4944L79.4376 72.8005L83.2298 72.481V49.911H77.6865L75.7079 55.2816H74.9404V48.9355H94.7202V55.2816H93.9526L91.9741 49.911H86.4307V72.4249L90.1092 72.7501L90.0524 73.4509L90.041 73.4565Z" fill="white"/>
<path d="M107.575 72.7562L110.702 72.4311V49.9171L107.575 49.592L107.632 48.9473H126.417L126.587 55.1307H125.928L123.784 49.9171H113.84V60.1145H119.498L120.93 56.2071H121.584L121.419 60.4958L121.584 65.003H120.93L119.498 61.0956H113.84V72.4927H124.171L126.53 67.1221H127.241L126.587 73.4682H107.683L107.575 72.7674V72.7562Z" fill="white"/>
<path d="M147.015 61.0332H149.375C151.518 61.0332 153.11 60.4894 154.264 59.4074C155.418 58.3198 155.97 56.9632 155.97 55.2309C155.97 54.3059 155.856 53.5491 155.583 52.8427C155.31 52.1868 154.924 51.5982 154.429 51.1609C153.934 50.7292 153.389 50.348 152.723 50.1294C152.064 49.9107 151.348 49.8042 150.637 49.8042H147.01V61.0332H147.015ZM140.699 72.7498L143.826 72.4247V49.9107L140.699 49.5856L140.756 48.9297H151.632C152.672 48.9297 153.667 49.0418 154.6 49.2548C155.532 49.4679 156.408 49.8547 157.13 50.3424C157.84 50.8301 158.449 51.4861 158.835 52.2429C159.273 52.9997 159.501 53.9247 159.501 55.0123C159.501 56.0998 159.279 56.9688 158.79 57.7256C158.352 58.4824 157.693 59.1383 156.919 59.6821C156.152 60.2259 155.271 60.6576 154.287 60.9827C153.298 61.3079 152.308 61.5826 151.205 61.7956L154.287 62.9336L160.768 72.3742L162.69 72.6994L162.633 73.3553H157.63L150.324 62.4515L149.886 61.9077H147.032V72.3798L150 72.705L149.943 73.3609H140.824L140.71 72.761L140.699 72.7498Z" fill="white"/>
<path d="M182.669 74.0014C181.077 74.0014 179.701 73.7883 178.604 73.4015C177.506 73.0203 176.46 72.4765 175.522 71.7757L175.136 66.7863H176.455L177.831 70.15C178.433 70.8507 179.206 71.4506 180.19 71.9383C181.128 72.4261 182.169 72.6391 183.317 72.6391C184.909 72.6391 186.12 72.2074 187.052 71.3385C187.934 70.4695 188.428 69.3259 188.428 67.9244C188.428 66.7303 188.099 65.6988 187.388 64.8859C186.677 64.073 185.682 63.3667 184.42 62.7164L180.19 60.6029C179.582 60.3338 179.036 60.003 178.484 59.6779C177.933 59.3527 177.495 58.9771 177.108 58.5398C176.728 58.1082 176.398 57.6148 176.176 57.0206C175.96 56.4768 175.846 55.8321 175.846 55.0641C175.846 54.1447 176.062 53.2757 176.455 52.5638C176.836 51.807 177.387 51.151 178.103 50.6073C178.814 50.0635 179.639 49.5757 180.633 49.1945C181.623 48.8133 182.669 48.4938 183.817 48.2695C184.972 48.2695 186.069 48.4321 187.223 48.7012C188.32 49.0264 189.366 49.458 190.248 50.0018V54.9912H189.31L187.934 51.3024C187.382 50.7586 186.779 50.327 186.069 50.0018C185.358 49.6767 184.477 49.5141 183.431 49.5141C181.947 49.5141 180.793 49.8897 179.974 50.6521C179.15 51.4089 178.712 52.4404 178.712 53.6906C178.712 54.7221 179.042 55.591 179.701 56.2918C180.361 56.9365 181.236 57.5924 182.333 58.1362L186.399 60.0927C187.058 60.4179 187.661 60.7935 188.263 61.2364C188.872 61.6176 189.361 62.1053 189.798 62.593C190.236 63.0807 190.566 63.6806 190.839 64.2748C191.112 64.9307 191.226 65.6315 191.226 66.4444C191.226 67.2012 191.112 67.9636 190.839 68.67C190.566 69.4268 190.128 70.1388 189.463 70.7835C188.804 71.4394 187.928 72.0841 186.882 72.6279C185.62 73.1717 184.295 73.6594 182.652 73.9845" fill="white"/>
<path d="M208.879 73.457H204.206L204.149 72.7562L207.281 72.4311V49.9171L204.149 49.592L204.206 48.9473H213.541L213.598 49.592L210.471 49.9171V72.4311L213.598 72.7562L213.541 73.457H208.879Z" fill="white"/>
<path d="M238.216 72.4305C239.478 72.4305 240.632 72.1615 241.73 71.6177C242.77 71.0739 243.708 70.3171 244.419 69.2855C245.186 68.3101 245.738 67.0599 246.181 65.6528C246.619 64.2401 246.79 62.6704 246.79 60.8821C246.79 59.3068 246.625 57.8436 246.238 56.543C245.852 55.1863 245.3 54.0427 244.533 53.0728C243.765 52.0974 242.77 51.2845 241.622 50.7407C240.468 50.1969 239.04 49.8718 237.443 49.8718H233.543V72.4418H238.216V72.4305ZM227.118 72.7557L230.416 72.4305V49.9166L227.118 49.5915L227.175 48.9355H238.546C240.354 48.9355 241.951 49.2046 243.435 49.6924C244.868 50.1801 246.125 50.9369 247.114 51.9684C248.103 52.9439 248.928 54.194 249.473 55.6572C250.025 57.126 250.298 58.7462 250.298 60.6466C250.298 62.5471 250.025 64.1728 249.53 65.6921C249.036 67.2113 248.268 68.5119 247.279 69.5939C246.289 70.6815 245.027 71.6065 243.543 72.2512C242.065 72.8959 240.303 73.2827 238.324 73.4452H227.169L227.112 72.7445V72.7557H227.118Z" fill="white"/>
<path d="M262.334 72.7562L265.461 72.4311V49.9171L262.334 49.592L262.391 48.9473H281.176L281.346 55.1307H280.738L278.594 49.9171H268.645V60.1145H274.308L275.735 56.2071H276.394L276.229 60.4958L276.394 65.003H275.786L274.353 61.0956H268.696V72.4927H278.918L281.278 67.1221H281.989L281.335 73.4682H262.431L262.323 72.7674L262.334 72.7562Z" fill="white"/>
</g>
<defs>
<clipPath id="clip0_284_5468">
<rect width="282" height="74" fill="white"/>
</clipPath>
</defs>
</svg>
